<?xml version="1.0" encoding="iso-8859-1"?>
<!-- Generator: Adobe Illustrator 24.0.1, SVG Export Plug-In . SVG Version: 6.00 Build 0)  -->
<svg version="1.1" id="Capa_1" xmlns="http://www.w3.org/2000/svg" xmlns:xlink="http://www.w3.org/1999/xlink" x="0px" y="0px"
	 viewBox="0 0 468.813 468.813" style="enable-background:new 0 0 468.813 468.813;" xml:space="preserve">
<g>
	<g>
		<path d="M378.407,84.813v-56c0-4.418-3.578-8-8-8h-32v-8c0-3.98-2.93-7.355-6.867-7.918L299.297,0.29
			c-8.25-1.18-16.641,1.273-22.953,6.754c-6.313,5.477-9.938,13.41-9.938,21.77s3.625,16.293,9.938,21.77
			c5.273,4.574,11.977,7.047,18.867,7.047c1.359,0,2.727-0.098,4.086-0.293l32.242-4.605c3.938-0.563,6.867-3.938,6.867-7.918v-8h24
			v48c0,66.168-53.828,120-120,120h-16c-66.172,0-120-53.832-120-120v-48h24v8c0,3.98,2.93,7.355,6.867,7.918l32.242,4.605
			c1.359,0.195,2.727,0.293,4.086,0.293c6.883,0,13.594-2.473,18.867-7.047c6.313-5.477,9.938-13.41,9.938-21.77
			s-3.625-16.293-9.938-21.77c-6.313-5.473-14.703-7.926-22.953-6.754l-32.242,4.605c-3.938,0.563-6.867,3.938-6.867,7.918v8h-32
			c-4.422,0-8,3.582-8,8v56c0,74.992,61.008,136,136,136v8c0,13.234,10.766,24,24,24h80c8.82,0,16,7.176,16,16s-7.18,16-16,16h-184
			c-17.648,0-32,14.355-32,32s14.352,32,32,32h72c4.414,0,8,3.59,8,8v0.639c-27.09,3.903-48,27.205-48,55.361
			c0,30.879,25.125,56,56,56s56-25.121,56-56c0-28.156-20.91-51.458-48-55.361v-0.639c0-13.234-10.766-24-24-24h-72
			c-8.82,0-16-7.176-16-16s7.18-16,16-16h184c17.648,0,32-14.355,32-32s-14.352-32-32-32h-80c-4.414,0-8-3.59-8-8v-8
			C317.399,220.813,378.407,159.806,378.407,84.813z M322.407,37.876l-25.375,3.625c-3.719,0.531-7.359-0.535-10.203-3.004
			c-2.813-2.438-4.422-5.965-4.422-9.684s1.609-7.246,4.422-9.684c2.367-2.055,5.273-3.137,8.328-3.137
			c0.617,0,1.25,0.043,1.875,0.133l25.375,3.625V37.876z M146.407,19.751l25.375-3.625c3.711-0.539,7.352,0.535,10.203,3.004
			c2.813,2.438,4.422,5.965,4.422,9.684s-1.609,7.246-4.422,9.684c-2.852,2.469-6.5,3.531-10.203,3.004l-25.375-3.625V19.751z
			 M274.407,412.813c0,22.055-17.945,40-40,40s-40-17.945-40-40s17.945-40,40-40S274.407,390.759,274.407,412.813z"/>
	</g>
</g>
</svg>
