<svg id="Capa_1" data-name="Capa 1" xmlns="http://www.w3.org/2000/svg" viewBox="0 0 333.72 123.02"><defs><style>.cls-1{fill:#3d98c4;}.cls-2,.cls-4{fill:#b5cedb;}.cls-2,.cls-5{stroke:#b5cedb;}.cls-2,.cls-3,.cls-4,.cls-5{stroke-width:10px;}.cls-3{fill:#112653;}.cls-3,.cls-4{stroke:#112653;}.cls-5{fill:none;}.cls-6{fill:#d8d4c2;}.cls-7{font-size:53px;font-family:TimesNewRomanPSMT, Times New Roman;}.cls-8{fill:#ff0a11;}</style></defs><title>logo</title><rect class="cls-1" x="9.49" y="9.51" width="314.5" height="104.25"/><path class="cls-2" d="M0,5H165.92" transform="translate(0 0)"/><path class="cls-3" d="M165.92,5h158" transform="translate(0 0)"/><path class="cls-4" d="M328.72,0V123" transform="translate(0 0)"/><path class="cls-4" d="M165.92,118h158" transform="translate(0 0)"/><path class="cls-5" d="M0,118H165.92" transform="translate(0 0)"/><path class="cls-5" d="M5,119.59V0" transform="translate(0 0)"/><g id="layer1"><path id="path5513" class="cls-6" d="M134.65,111.89c-.15-.14-.13-.41.08-.89a8.15,8.15,0,0,0,.37-1.19c.1-.42.25-1,.35-1.34a25.75,25.75,0,0,0,.77-3.48,28.76,28.76,0,0,0,.17-5.79c-.1-3-.15-4.59-.23-7.2-.08-3-.08-3-.74-5a1,1,0,0,1-.09-.46s0-.14-.14-.26A.79.79,0,0,1,135,86c0-.09-.78-1.56-1.65-3.13a11.84,11.84,0,0,0-2.09-2.75,2.1,2.1,0,0,1-.47-.58,3.91,3.91,0,0,0-.74-.83A26.32,26.32,0,0,0,127.86,77a12.25,12.25,0,0,1-1.35-.93,3.71,3.71,0,0,0-.57-.41l-.89-.57a4.38,4.38,0,0,0-.43-.24,11,11,0,0,1-1.36-.82,12.85,12.85,0,0,1-2.41-2.42,12.87,12.87,0,0,1-.85-1.49c-.26-.54-.85-1.65-1.31-2.47A28.26,28.26,0,0,1,116.42,63a26,26,0,0,1-.92-3.44c-.09-.54-.28-1.43-.43-2a24.13,24.13,0,0,1-.46-4.25,45.63,45.63,0,0,1-.09-6.27c.06-.56.12-1.27.14-1.59s.07-.82.12-1.1a7.33,7.33,0,0,0,.1-1.07,16.89,16.89,0,0,1,.54-3.36,11.47,11.47,0,0,1,1.43-3.46c.35-.57.8-1.23,1-1.48a5.41,5.41,0,0,0,.53-.78,4.2,4.2,0,0,1,.52-.7A12.8,12.8,0,0,0,120,32.21c.32-.46,2.38-2.78,3-3.34.26-.24.61-.61.79-.81a54.16,54.16,0,0,1,4.87-4.29l1.08-.85a35.76,35.76,0,0,1,7.86-4.73c.42-.19.89-.41,1-.49a39.49,39.49,0,0,1,3.78-1.16c1-.27,1.84-.46,3.09-.7,1.66-.31,3.09-.58,3.6-.69.32-.06,1.09-.19,1.7-.27l1.53-.24c.42-.08,1.16-.16,3.82-.39,1.49-.13,1.79-.15,3.37-.23a29.76,29.76,0,0,0,3.64-.29,1.68,1.68,0,0,1,1,0,18,18,0,0,0,2.1.18l1.93.09,1.08.06a4.62,4.62,0,0,1,.9.13,6.77,6.77,0,0,0,1.08.17c.44,0,1,.11,1.3.15a26.19,26.19,0,0,1,4.67,1l1,.35,1.26.43c.45.15,1.19.4,1.66.54a15.65,15.65,0,0,1,1.66.61c1.22.52,1.84.76,2.41.94a27,27,0,0,1,3.61,1.65l1,.59c.81.48,2.8,1.86,3.92,2.73a30.16,30.16,0,0,1,3.6,3.64c.75,1,1.78,2.5,2,2.87a15,15,0,0,1,1.4,3.81c.13.6.29,1.36.37,1.7s.19,1,.27,1.49a23.13,23.13,0,0,0,.55,2.84A20,20,0,0,0,203.8,45c1,1.8,1.08,2.4.61,3.61a1.81,1.81,0,0,0-.18,1.37,2.66,2.66,0,0,0,.79,1.64,3,3,0,0,1,.39.54,2.36,2.36,0,0,0,.41.48,5.87,5.87,0,0,1,.72,1l.71,1.19a7.27,7.27,0,0,1,.55,1,9.84,9.84,0,0,0,.49,1,4.9,4.9,0,0,1,.4.85,5.49,5.49,0,0,0,.32.81c.14.29.36.78.5,1.09a19.29,19.29,0,0,0,1.7,3,7.28,7.28,0,0,1,.51.73,15.73,15.73,0,0,0,1.15,1.48c1.31,1.5,1.69,2.17,1.53,2.73a17.79,17.79,0,0,1-.87,2.45c-.58,1.24-1.19,1.56-3.37,1.75a8.85,8.85,0,0,0-3,.81c-.45.24-.55.4-.91,1.53a2.4,2.4,0,0,0-.15,1.13c.14,1.52.42,2.11,1.28,2.69.35.23.39.3.48.76a1.3,1.3,0,0,1-.08,1,3.12,3.12,0,0,1-.36.69.89.89,0,0,0-.18.32,2.25,2.25,0,0,1-.44.53c-.5.49-.5.55-.12,1.22a1.42,1.42,0,0,1-.06,1.71l-.55.64a7,7,0,0,0-1.38,2.36,8.85,8.85,0,0,0,.39,3.7,7.63,7.63,0,0,0,1,2.3l.6,1v1.37c0,1.21,0,1.22-.25,1.58a6.32,6.32,0,0,1-2.52,2c-.16,0-.63.16-1,.27a5.34,5.34,0,0,1-1.8.22c-.57,0-1.32,0-1.67-.08a26,26,0,0,0-4.05,0c-.45,0-1.26.16-1.81.26a15.25,15.25,0,0,1-4.73,0,22.93,22.93,0,0,0-3.42-.4,8.15,8.15,0,0,1-1.06-.06,3.1,3.1,0,0,0-1.17.14c-1.82.43-1.92.5-2.29,1.43a3.82,3.82,0,0,0-.31,1.59l0,.9.5,1.17a9.48,9.48,0,0,1,1,3.52,8.29,8.29,0,0,1-.26,3.18.47.47,0,0,1-.35.09c-.51,0-.67-.91-.46-2.41a6.76,6.76,0,0,0-.91-4.35,5.23,5.23,0,0,1-.54-3c.05-.17.18-.59.28-.95.21-.76.42-1,1.49-1.62a3.74,3.74,0,0,1,1.76-.6,6,6,0,0,1,1.89-.11,7,7,0,0,1,1.11.16,1.93,1.93,0,0,0,.63.1,3.55,3.55,0,0,1,.68.07c.28.08,1.94.26,3.39.37a9.21,9.21,0,0,0,2.57-.29,4.53,4.53,0,0,1,.86-.11c.29,0,.94-.07,1.44-.12l1.39-.13a16.52,16.52,0,0,1,1.89.08,16.64,16.64,0,0,0,4.21-.07,4.83,4.83,0,0,0,2-1.38,2.57,2.57,0,0,0,.36-2.42,5.44,5.44,0,0,1-.32-.9,6.19,6.19,0,0,0-.31-.9c-.1-.18-.32-.7-.49-1.14-.87-2.21-1.06-3.24-.83-4.59a2.76,2.76,0,0,1,1.32-2.24,4.73,4.73,0,0,0,.86-.79,1.21,1.21,0,0,0-.57-1.57,2,2,0,0,0-.79.13,15.69,15.69,0,0,1-2.22.47c-.27,0-.36,0-.48-.15-.31-.41-.09-.66.94-1.05a8.58,8.58,0,0,1,2.19-.55c.79-.11,1.1-.36,1.59-1.28s.57-.93-.28-2.08a4.22,4.22,0,0,1-.75-2.08,4.37,4.37,0,0,1,0-2.26,2.9,2.9,0,0,1,1.63-1.81,9,9,0,0,1,2.6-.74c.28,0,.81,0,1.17-.07a1.32,1.32,0,0,0,1-.41,3.76,3.76,0,0,0,.83-1.28c.62-1.29.68-1.51.64-2s-.07-.49-.73-1.19a15,15,0,0,1-2.18-2.88,3.52,3.52,0,0,0-.37-.57,21.75,21.75,0,0,1-1.52-3.12c-.41-1.08-.45-1.13-.71-1-.46.29-.75.13-2.63-1.55-2.72-2.42-2.7-2.41-3.92-3a5.48,5.48,0,0,0-2.79-.59,14.87,14.87,0,0,1-1.57-.11c-.73-.14-1.28-.27-2-.46a5.5,5.5,0,0,0-1.08-.2,5.11,5.11,0,0,0-2,.68,3.75,3.75,0,0,1-.68.34c-.1,0-.62.24-1.17.48a5.4,5.4,0,0,1-1.81.53c-.89.11-1.21.05-1.21-.23s.11-.16.75-.2a4.09,4.09,0,0,0,2.1-.62,1.18,1.18,0,0,1,.42-.25,8.68,8.68,0,0,0,1.69-.66,3.27,3.27,0,0,1,.63-.27,1.72,1.72,0,0,0,.44-.2c.18-.13.2-.18.13-.38a1.12,1.12,0,0,1,0-.63.74.74,0,0,1,.39-.57,1.35,1.35,0,0,0,.56-.67.75.75,0,0,0-.27-.12c-.33-.11-.42-.36-.27-.76s0-.56-.36-.2-.33.48-.18.74-.33.55-.61.3-.23,0-.08.39c.24.62.2.78-.28,1.16l-.83.67c-.68.54-2.08,1.2-2.08,1s.23-.26.79-.54a7.64,7.64,0,0,0,2.06-1.64c.08-.28-.17-.56-.55-.63s-.35,0-.95.52a14.53,14.53,0,0,1-2.12,1.55,1.4,1.4,0,0,0-.34.19,5,5,0,0,1-2.85.71,1.65,1.65,0,0,0-1,.19,4.91,4.91,0,0,1-2.17.85c-.6,0-.72.13-.54.53s.28.34.94.29c.2,0,.19,0-.16.43l-.38.46-.4-.21a1,1,0,0,0-.69-.16,5.82,5.82,0,0,1-.62.08c-.18,0-.74.13-1.26.25s-1.3.27-1.74.33a18.91,18.91,0,0,1-3.83,0,11.06,11.06,0,0,1-4.47-1.15l-1.57-.73a4.18,4.18,0,0,0-.85-.26,6.06,6.06,0,0,1-1.67-.49,1.39,1.39,0,0,0-.43-.18c-.44,0,.49,1.51,1.34,2.18.39.31.53.36,1.76.63,2.09.46,3,1.26,2.87,2.38a1.53,1.53,0,0,1-.69,1.07,2.75,2.75,0,0,1-2.28.48,2.23,2.23,0,0,0-1.38.13,2.62,2.62,0,0,1-1.89.07,4,4,0,0,1-1.13-1.12,1.91,1.91,0,0,1-.15-.79v-.17l.67-.58c.4-.35.66-.65.66-.75s-.39-.7-.95-1.14a5.63,5.63,0,0,0-2-.95,1.13,1.13,0,0,1-.39-.07,5.07,5.07,0,0,0-.58-.2l-.43-.13-.41.32a1,1,0,0,1-1.8-.67c0-.27,0-.29-.26-.29-.57,0-1,.58-1.16,1.59a9.11,9.11,0,0,0-.28,2.36,1.53,1.53,0,0,0,.69-.1,2.16,2.16,0,0,1,1.2-.08,3.23,3.23,0,0,1,2.59,2.12,4,4,0,0,1,.19,1.88,5.12,5.12,0,0,1-.21,2c-.1.31-.25.73-.31.92a22.54,22.54,0,0,1-1.34,2.82,5.8,5.8,0,0,1-1.78,1.9,2.72,2.72,0,0,1-2,.79l-.7,0s0,.37-.07.81a2.63,2.63,0,0,1-.31,1.24A7.17,7.17,0,0,1,152.19,74c-.82.87-1.11,1.19-1.43,1.58a2.57,2.57,0,0,1-.3.32,15.06,15.06,0,0,0-1.61,2.37,18.9,18.9,0,0,0-1.67,6.53c-.09,1.13-.1,5.89,0,8.85.1,3.47.13,12,.05,13.81-.09,2-.24,3.21-.43,3.38a.28.28,0,0,1-.27.1c-.1-.06-.08-.37.1-2.4.16-1.68.26-5.81.23-9.45-.12-14.3-.12-13.86,0-15.29.37-3.22.71-4.42,1.67-6a12.1,12.1,0,0,1,1.08-1.63c.61-.77,1.68-2,2.13-2.46a4.58,4.58,0,0,0,1.35-2.06c0-.12-.11,0-.35.31a4.24,4.24,0,0,1-.6.67c-.16.13-.2.14-.11,0a7.24,7.24,0,0,0,.76-1.38,2.2,2.2,0,0,0,.22-1.44c-.12-.37-.34-.46-.41-.16a5.43,5.43,0,0,1-1.69,3.13c-.44.53-.91,1.1-1,1.28a23.84,23.84,0,0,0-1.68,3c-.15.36-.37.89-.49,1.16a3.05,3.05,0,0,0-.21.61c0,.06-.16.61-.35,1.22a22.41,22.41,0,0,0-.91,5.12c-.09.94-.09,3.55,0,14.58,0,1.14,0,2.62-.1,3.28s-.13,2.55-.16,4.2c0,3-.13,3.92-.36,4.1s-.25-.12-.14-.81a23.85,23.85,0,0,0,.1-2.63,20.69,20.69,0,0,1,0-2.09,1.07,1.07,0,0,0,0-.44c0-.28-.08-.35-.15-.29a3.91,3.91,0,0,0-.12,1.23,8.87,8.87,0,0,1-.18,2.5,7,7,0,0,0-.24,2c.06.23-.1.61-.26.61s-.21-.14-.14-.92a36.52,36.52,0,0,0,.32-4.8c-.06-.79-.08-.85-.36-.85s-.44,0-.45,3.24c0,2.73,0,3-.16,3.14s-.15.13-.22,0a2.59,2.59,0,0,1,0-.79c.07-.69,0-.9-.3-.9a8.16,8.16,0,0,0-2.3.65,16,16,0,0,1-2.22.92c-.6.16-.91.09-1.06-.27a6.75,6.75,0,0,1-.1-1.38v-1l.35-.26a8,8,0,0,1,3.2-1,5.38,5.38,0,0,0,1.22-.36,2.66,2.66,0,0,1,.68-.24c.31,0,.47-.2.47-.6s-.12-.66-.46-.66a2,2,0,0,0-1.11.42.45.45,0,0,1-.28.13,3.19,3.19,0,0,0-.65.21,1.31,1.31,0,0,1-2-.93,1.23,1.23,0,0,1,0-1l.16-.48.83-.38c.45-.21,1.08-.47,1.38-.57s.86-.33,1.26-.51c.74-.33,1-.37,1.35-.24s.39.32.15.46-.19.16-.19.21-.42.3-.56.23a1,1,0,0,1-.21-.2.42.42,0,0,0-.28-.14c-.2,0-.62.29-.62.43a.17.17,0,0,0,.29.13c.14-.13.36-.11.6.06a.47.47,0,0,0,.69-.14c.12-.21.3-.21.52,0s.19.13.23.07a13.46,13.46,0,0,0-.09-2.2c-.07-.3-.3-.34-1.39-.26a4.62,4.62,0,0,0-1.66.33c-.76.3-1.29.33-1.63.1s-.45-.45-.38-1.48c.05-.77.09-.95.23-1.08a5.05,5.05,0,0,1,1.77-.76,8.76,8.76,0,0,0,1.24-.32,5.78,5.78,0,0,1,1-.27c.25,0,.29.16.09.32a.9.9,0,0,0,0,1c.2.15.15.39-.13.61s-.24.23-.16.39a.38.38,0,0,1,0,.4c-.14.26-.06.31.51.27s.45,0,.46-.27a2.65,2.65,0,0,0,0-.33s0-.45,0-.91a13.92,13.92,0,0,0-.08-1.51c0-.37-.12-1.06-.16-1.53a4.69,4.69,0,0,0-.13-.9s-.13,0-.22.07a1.14,1.14,0,0,1-.43.18,2.11,2.11,0,0,0-.62.26,9,9,0,0,1-.93.46c-.65.28-1,.29-1.33,0a2.85,2.85,0,0,0-.5-.26c-.52-.19-.79-.6-.64-1a3.39,3.39,0,0,1,1.34-.83,10.9,10.9,0,0,0,1.17-.54,2,2,0,0,1,1.37-.37c.4,0,.65,0,.67-.09a2.21,2.21,0,0,0,0-.68c0-.32-.1-.9-.13-1.28s-.09-.71-.18-.74-.32.13-.63.42a6.6,6.6,0,0,1-2.13,1.31.82.82,0,0,1-.75-.13,1.37,1.37,0,0,1-.48-.4,4.06,4.06,0,0,1-.18-1.61,2,2,0,0,1,.64-.41c.3-.14.78-.39,1.06-.54a1.42,1.42,0,0,1,1.11-.23,7.61,7.61,0,0,0,1,0l.37,0v-.85a3.38,3.38,0,0,0-.26-1.36,3.2,3.2,0,0,0-1.58.56,2,2,0,0,1-1,.35,7.18,7.18,0,0,0-1,.21.93.93,0,0,1-.69,0c-.34-.13-.44-.31-.47-.87,0-.26-.06-.63-.1-.83-.1-.6.07-.79,1.1-1.26a4.89,4.89,0,0,1,1.63-.51c.73-.1.75-.1,1.13.11s.7.26.85.09a7.67,7.67,0,0,0-.21-2.56l-.12-.44-.11.26a1.06,1.06,0,0,1-1,.57,2.24,2.24,0,0,0-.74.11c-.86.27-1.68.13-2-.34a2.74,2.74,0,0,1-.05-1.61,2.77,2.77,0,0,0,.15-.43,1.17,1.17,0,0,0-.5-.06,2.83,2.83,0,0,1-.83-.13,5.29,5.29,0,0,0-1.14-.19,8.5,8.5,0,0,1-1.36-.23,2.3,2.3,0,0,0-.91-.12,8.44,8.44,0,0,1-4.45-1.63c-1.15-.79-1.41-1-1.51-.92a5.14,5.14,0,0,0,1,1,11.4,11.4,0,0,1,1.34,1.21,3.17,3.17,0,0,0,.46.5,20.92,20.92,0,0,1,2.26,2.82c.34.52,2.24,4,2.43,4.46a12.18,12.18,0,0,1,.92,3.2A25.69,25.69,0,0,1,137,92c0,1.16.07,2.59.12,3.19s.11,2,.14,3.08.07,2.22.09,2.51c0,.65-.12,3.5-.23,4.21,0,.29-.11.74-.13,1a5.61,5.61,0,0,1-.23,1,18.85,18.85,0,0,0-.72,2.42,6.54,6.54,0,0,1-.22.91c-.12.42-.22.84-.23.93a.79.79,0,0,1-.23.43c-.24.25-.55.32-.74.15Zm5.29-1.37a7.18,7.18,0,0,1,2.82-1c1-.08,1-.07,1-.9s-.11-1.24-.27-1.33-.42,0-1.2.32a6.35,6.35,0,0,1-1.17.34,5.76,5.76,0,0,0-2.79,1c-.24.2-.25.25-.25,1.06s.08,1.16.39,1.16a9.65,9.65,0,0,0,1.51-.62Zm1.09-4.75.22-.15-.21-.2a.66.66,0,0,1-.2-.3c0-.05-.09-.09-.2-.08a1.51,1.51,0,0,1-.46-.05.9.9,0,0,0-.49,0c-.2.08-.22.13-.18.38a.7.7,0,0,0,.22.4,1.63,1.63,0,0,0,1.3,0Zm1.51-.56a4.75,4.75,0,0,1,1.78-.42c.36,0,.5-.17.49-.63s-.12-.58-.21-.44a.33.33,0,0,1-.24.09.59.59,0,0,0-.34.2c-.2.24-.4.26-.56.09s-.27-.15-.27.07-.21.46-.35.46-.28-.24-.28-.59,0-.4-.2-.27-.2.19-.18.41-.1.53-.36.53-.17.06-.17.23a1.18,1.18,0,0,1-.05.37c-.09.21.35.16.94-.1Zm3.18-.3a.48.48,0,0,0-.09-.33c-.06,0-.09.1-.09.33s0,.36.09.33A.48.48,0,0,0,145.72,104.91Zm-4.45-.25a.24.24,0,0,0,.2-.23.61.61,0,0,1,.22-.37c.18-.15.21-.22.14-.34a.69.69,0,0,1-.09-.31c0-.19-.06-.2-.4-.09-.18.06-.23.12-.19.25l.1.32q.06.17-.18.36C140.68,104.58,140.78,104.78,141.27,104.66Zm-1-.34c.15-.11.18-.2.14-.33s-.24-.23-.49,0-.16.19-.1.33S140,104.51,140.3,104.32Zm5.51-1.91a51.59,51.59,0,0,0,0-6.36c-.1-.08-.24,1.2-.15,1.33a2.24,2.24,0,0,1,.06.63c0,.3,0,1.62,0,2.93s0,2.38,0,2.38S145.75,102.91,145.81,102.41Zm-4.89-1.7c.28-.09.29-.1.23-.47a1,1,0,0,0-.18-.49c-.11-.1-.15-.09-.31.09a.75.75,0,0,1-.43.24c-.2,0-.25.08-.28.26C139.9,100.77,140.27,100.91,140.92,100.71ZM143,100a.13.13,0,0,0-.1-.11s-.09,0-.09.11,0,.12.09.1A.12.12,0,0,0,143,100Zm-.74-.8c0-.11-.07-.14-.31-.14s-.32,0-.37-.2c-.12-.42.38-.73.6-.37a.37.37,0,0,0,.36.16c.33,0,.43.18.28.52-.05.13-.09.26-.07.27a.94.94,0,0,0,.36-.1c.32-.14.32-.15.27-.56a1.2,1.2,0,0,0-.18-.54.38.38,0,0,1-.12-.21c0-.23-.22-.26-.67-.09a4.18,4.18,0,0,1-.87.2c-.51,0-.6.12-.46.39a1.18,1.18,0,0,1,.1.35c0,.08.12.2.27.28s.27.2.27.33a.37.37,0,0,0,.07.25c.08.08.47-.36.47-.54ZM140.52,99c-.26-.26-.34-.29-.41-.19s-.1.48.07.49a1.16,1.16,0,0,1,.39.11c.36.18.33,0,0-.41Zm.22-4c.09-.09.07-.14-.07-.23a.86.86,0,0,1-.28-.34c-.08-.19-.12-.21-.23-.13s-.16.39.09.61S140.59,95.23,140.74,95.07Zm1.88-.31a.43.43,0,0,0,0-.55c-.06-.1-.16-.13-.32-.11s-.23.09-.23.31a1.15,1.15,0,0,1-.06.41c0,.12,0,.13.21.08A1.37,1.37,0,0,0,142.62,94.76Zm-1.18-.35a.48.48,0,0,1,.22-.29.47.47,0,0,0,.12-.59s-.22,0-.41.16-.34.25-.3.35a1.31,1.31,0,0,1,.11.35C141.23,94.67,141.36,94.68,141.44,94.41Zm2.75-1c-.11-.26-.24-.29-.32-.06a1.86,1.86,0,0,1-.29.41c-.31.33-.25.53.17.53a1,1,0,0,1,.4.06C144.26,94.42,144.3,93.62,144.19,93.37Zm-1.18,0c0-.23,0-.28-.18-.28s-.29.1-.19.35S143,93.7,143,93.35Zm2.32-.82c0-.43,0-.61-.06-.57a1.5,1.5,0,0,0-.09.68c0,.78.1.71.15-.11Zm-.54,0c0-.08,0,0,0,.1s0,.2,0,.14A.38.38,0,0,0,144.79,92.52Zm.08-.94c0-.44-.05-.89-.16-.83a1.85,1.85,0,0,0,0,1c.08.33.14.26.18-.18Zm.46-.45c0-.08,0,0-.05.1s0,.2.05.15A.53.53,0,0,0,145.33,91.13Zm-4.11-.41c.13-.12.12-.17-.08-.44s-.27-.31-.35-.31-.17.13,0,.21.08.18,0,.37,0,.32.12.32A.48.48,0,0,0,141.22,90.72Zm3.64-1.63c-.06-.2-.07-.2-.14,0a2,2,0,0,0,0,1c.06.26.07.24.14-.24A2.3,2.3,0,0,0,144.86,89.09Zm-2.9.38a.55.55,0,0,0-.07-.5,1.53,1.53,0,0,1-.15-.37c0-.21-.55,0-1.08.42-.28.21-.29.24-.15.36s.16.12.31,0,.56-.18.68.11S141.84,89.77,142,89.47Zm.94.07c0-.09,0-.14-.16-.14s-.18,0-.18.17S142.86,89.76,142.9,89.54Zm.92-.79a1,1,0,0,0-.09-.53c-.14-.07-.65.3-.54.4a.45.45,0,0,1,.09.29c0,.27.14.4.37.35S143.82,89.14,143.82,88.75ZM145,87.23c.15-1.33.17-1.74.05-1.74a7.78,7.78,0,0,0-.29,2.77C144.83,88.69,144.92,88.31,145,87.23Zm-5.13-.45c.31-.1.36-.21.2-.48s-.06-.21,0-.36a.4.4,0,0,0,.09-.32c-.06-.15-.08-.15-.3,0s-.16.14-.12.35-.12.46-.47.43a.19.19,0,0,0-.21.14c-.08.37.19.47.77.28Zm1.66-.53a4.29,4.29,0,0,1,1.46-.7c.36,0,.47-.19.44-.78,0-.37-.13-.48-.36-.37s-.19.15-.19.21a.82.82,0,0,1-.33.57.43.43,0,0,1-.31-.13l-.18-.16.18-.26c.21-.32.14-.47-.19-.41s-.24.07-.21.38a4.85,4.85,0,0,0,.09.55c.07.27-.09.56-.32.56s-.36-.23-.36-.55-.2-.47-.41-.39-.12.08.06.3.19.25,0,.46a1.41,1.41,0,0,0-.24.57l-.06.34h.3a1.31,1.31,0,0,0,.61-.19Zm-2.19-.53a.3.3,0,0,0,0-.48c-.12-.09-.16-.08-.26,0s-.08.55.08.55A.36.36,0,0,0,139.38,85.72Zm4.75-.53c.05-.32.11-1.57.19-3.77a25.72,25.72,0,0,1,.69-4.9c.1-.42.22-.9.25-1.08a25.38,25.38,0,0,1,.78-2.52,6.76,6.76,0,0,0,.57-2.41c-.05,0-.14.12-.21.27-.49,1-.83,1.84-1.27,3-.28.75-.54,1.44-.59,1.52a14.56,14.56,0,0,0-.81,3.34,31,31,0,0,0,.1,6.25c0,.25.08.48.08.51s0,.06.08.06S144.1,85.36,144.13,85.19Zm1.19-.56c0-.22.05-.59.07-.83.05-.46-.09-.59-.16-.16-.11.68-.14,1.56,0,1.47A.94.94,0,0,0,145.32,84.63Zm-.47-1.4c0-.21.14-1,.24-1.85.43-3.46.53-4,.72-4s.19.24.14.32a30.41,30.41,0,0,0-.37,3.06,16,16,0,0,1-.23,1.69,1.53,1.53,0,0,0,0,.6l.06.3.12-.26a5,5,0,0,0,.21-1c0-.41.15-1,.23-1.4s.15-.94.19-1.3.13-1.24.22-2,.19-1.65.22-2.07l.05-.78-.22.82c-.12.45-.25,1-.28,1.12s-.1.3-.19.3-.14-.08-.09-.55c0-.3.09-.79.12-1.1s0-.55,0-.55-.21.19-.29.62c0,.17-.13.56-.21.85a26.77,26.77,0,0,0-.69,4,27.47,27.47,0,0,0-.12,3.47C144.68,83.8,144.79,83.65,144.85,83.23Zm-4.29-1.64a.12.12,0,0,0,.06-.16c-.05-.07-.1-.07-.19,0C140.19,81.61,140.3,81.74,140.56,81.59Zm1.7-.37a.47.47,0,0,0,.07-.37c-.08-.27-.11-.29-.3-.13a.6.6,0,0,1-.25.13,2.8,2.8,0,0,1-.94-.86c-.09-.2-.31-.26-.41-.11s.14.63.37.68a.45.45,0,0,1,.23.68l-.11.2.61,0C142,81.38,142.16,81.34,142.26,81.22Zm-2.41-.29s-.09-.12-.18-.2-.19-.14-.19.14a.61.61,0,0,0,.07.34c.06.06.3-.16.3-.28Zm2.43-.9c0-.1-.27-.32-.41-.32s-.16.11.07.37.21.19.27.11A.4.4,0,0,0,142.28,80Zm4.75-1.5a19.4,19.4,0,0,1,1.44-2.76c2.09-3.62,2.35-4.2,2.85-6.52.1-.49.24-1.06.31-1.26a5.67,5.67,0,0,0,.19-1.13c.08-1.06-.06-1-.7.49-.29.64-.83,1.74-1.19,2.43s-.83,1.61-1,2l-.63,1.3a14.08,14.08,0,0,0-.83,2.1,32.24,32.24,0,0,0-.81,3.28c-.18,1.26-.11,1.27.4,0Zm-8.77.33s-.26-.1-.58-.13l-.68-.08a.07.07,0,0,0-.1,0s.12.12.27.17c.34.11,1.09.1,1.09,0ZM135,78.42c.07-.11-.12-.22-.71-.42a9,9,0,0,1-1.42-.74,9,9,0,0,0-1-.56s-.11.09-.17.21-.34.33-.51.2-.18-.45-.05-.53.1-.25-.18-.4a1.06,1.06,0,0,0-.3-.12l-.18.25c-.18.26-.47.3-.55.08s-.76-.69-.92-.63,0,.3.43.58a10.85,10.85,0,0,1,.89.63,5.78,5.78,0,0,0,1.81.93,13.51,13.51,0,0,0,2.68.58.18.18,0,0,0,.16-.06Zm.32,0a.09.09,0,0,0-.1-.08,0,0,0,0,0,0,.08.16.16,0,0,0,.1.08S135.33,78.46,135.33,78.41Zm8.44-1.93c.13-.39.28-.82.34-1s.22-.55.36-.94a6.55,6.55,0,0,1,.34-.77,3.67,3.67,0,0,0,.27-.61c.26-.74.76-2,1-2.6.13-.29.34-.83.46-1.18s.36-1,.54-1.47a7.11,7.11,0,0,0,.58-2c0-.21,0-.21-.17,0a1.66,1.66,0,0,0-.23.49,27.76,27.76,0,0,1-1,2.89,4.22,4.22,0,0,0-.22.52,3.39,3.39,0,0,1-.23.57c-.1.19-.29.63-.44,1s-.5,1.13-.78,1.71a9.46,9.46,0,0,0-1.13,3.44,2.7,2.7,0,0,0,0,.59,5.2,5.2,0,0,0,.28-.71Zm-4.47.1c-.06-.07-.13-.11-.15-.09s.06.21.17.21S139.37,76.66,139.3,76.58ZM128,75.93a6.74,6.74,0,0,0-.89-.74c-.35-.24-.8-.58-1-.75a6.18,6.18,0,0,0-1.66-1,4.82,4.82,0,0,1-2.33-1.79,1.41,1.41,0,0,1-.2-.33,1.42,1.42,0,0,0-.24-.34,11.91,11.91,0,0,1-1.11-1.93c-.09-.21-.31-.66-.49-1a7,7,0,0,1-.38-.78c-.06-.18-.89-1.79-1-2a19.92,19.92,0,0,1-1.17-2.25,19.4,19.4,0,0,0-.59-2.14c-.11-.38-.27-1-.36-1.35l-.27-1.18c-.07-.29-.18-.78-.23-1.09a4.28,4.28,0,0,0-.14-.63c-.07-.1-.17-3.08-.17-5a38.09,38.09,0,0,1,.31-5c.1-1,.24-2.43.32-3.25s.17-1.53.19-1.57a5.9,5.9,0,0,0,.13-.77A11.87,11.87,0,0,1,118,36.45a4.42,4.42,0,0,0,.41-.76,3.48,3.48,0,0,1,.42-.71c.63-.76.88-1.07,1.06-1.3a22.38,22.38,0,0,1,1.53-1.76c.31-.33.86-1,1.21-1.37s1-1.14,1.41-1.58c.81-.84,1.19-1.26,1.5-1.64.1-.13.27-.33.39-.46s.18-.24.15-.24-.75.6-2.16,1.84a7.92,7.92,0,0,0-.92,1,6.39,6.39,0,0,1-.72.78,23.85,23.85,0,0,0-2.11,2.58c-.11.17-.24.31-.28.31a3.55,3.55,0,0,0-.59.79c-.28.44-.62,1-.75,1.14A16.38,16.38,0,0,0,117,37.54,10.76,10.76,0,0,0,115.86,41c-.08.5-.26,1.52-.4,2.28-.33,1.84-.38,3.62-.26,8.27a17.59,17.59,0,0,0,.16,2.55,1.43,1.43,0,0,1,0,.6,11.11,11.11,0,0,0,.32,2.71c0,.24.18.92.32,1.5a29.6,29.6,0,0,0,1.23,4.49,8.72,8.72,0,0,1,.35.93,1,1,0,0,0,.13.31c.07.12.29.55.48,1a12.93,12.93,0,0,0,.78,1.33,16,16,0,0,1,1,1.8l.77,1.54a7.76,7.76,0,0,0,.69,1c.28.35.67.84.87,1.11A3,3,0,0,0,123,73c.17.1.51.33.75.51a8.57,8.57,0,0,0,1,.62,10.3,10.3,0,0,1,1,.66,13,13,0,0,0,2.42,1.42A1.35,1.35,0,0,0,128,75.93Zm9.7.06c-.14-.12-.15-.13-.15,0a.18.18,0,0,0,.11.16C137.88,76.21,137.9,76.14,137.74,76Zm-9.19-.7a.76.76,0,0,1,.14-.43c.12-.17.11-.2-.14-.44l-.27-.27-.21.18c-.23.2-.42.22-.58.08a.5.5,0,0,1,0-.64c.13-.09.1-.32-.05-.32a.86.86,0,0,0-.3.2c-.19.17-.27.19-.41.12s-.24-.34,0-.53.22-.3-.06-.6-.43-.25-.37.17-.09.55-.39.55-.23-.09-.3-.72c0-.3,0-.38.17-.54s.28-.31,0-.85a2.26,2.26,0,0,1-.27-.56,2.43,2.43,0,0,0-.22-.53,7.21,7.21,0,0,1-.41-1.16,4.14,4.14,0,0,0-.64-1.73l-.18-.2-.19.18c-.21.21-.56.2-.6,0s.14-.38.4-.38c.44,0,.28-.27-.93-1.53-.41-.43-.42-.43-.82-.37l-.41,0,.06-.4c0-.38,0-.42-.25-.67l-.31-.27-.09.27c-.19.55-.19,1,0,1.16s.22.34,0,.54-.16.17,0,.22a.48.48,0,0,0,.35-.13c.24-.21.62-.21.67,0a1.1,1.1,0,0,1-.32.48c-.33.33-.36.34-.73.29s-.42-.11-.49-.27-.08-.22.08-.34.18-.2.14-.52-.08-.44-.34-.26a.44.44,0,0,1-.58,0c-.14-.16,0-.46.27-.46s.47-.42.4-.68a.4.4,0,0,1,.37-.46c.21,0,.15-.16-.27-.81-.54-.81-.63-.91-.81-.85s-.19.16,0,.24.11.39,0,.51a.46.46,0,0,1-.25.1c-.08,0-.19.11-.25.24a.45.45,0,0,1-.38.3c-.15,0-.28.1-.28.16s.26.24.39.12a.42.42,0,0,1,.24-.09.82.82,0,0,0,.39-.25c.2-.21.27-.23.42-.16s.23.22.07.76-.24.58-.55.47a1.44,1.44,0,0,0-.38-.09c-.19,0-.16.43,0,.67a21.24,21.24,0,0,1,1.45,2.76c.19.42.43.9.53,1.06a5.52,5.52,0,0,1,.38.77,10.34,10.34,0,0,0,1.88,2.75,11.93,11.93,0,0,0,2.36,1.35,8.4,8.4,0,0,1,2.14,1.56,2.13,2.13,0,0,0,.74.53c.06,0,.1-.18.1-.32Zm-4.17-3a1.14,1.14,0,0,1,0-.49l.06-.41h-.35a.94.94,0,0,1-.46-.09c-.07-.06-.17,0-.37.06s-.3.13-.41,0a.43.43,0,0,1-.06-.57c.06-.08.18-.1.45-.06l.37.06v-.36a.63.63,0,0,1,.13-.46.46.46,0,0,0,.14-.33c0-.15.06-.25.17-.28.4-.11.66.21.39.48a1.15,1.15,0,0,0-.2,1,.76.76,0,0,0,.39.22c.28.07.29.09.3.51a1.63,1.63,0,0,1-.07.59.34.34,0,0,1-.49.06Zm-1.64-2.22a.61.61,0,0,1-.15-.37c0-.15,0-.21-.16-.21-.44,0-.5-.43-.1-.65a1.51,1.51,0,0,0,.44-.39c.15-.22.15-.24,0-.42s-.22-.39,0-.5c.4-.19.55.09.31.59,0,.11,0,.15.12.15a.31.31,0,0,0,.24-.09c.09-.13.67-.09.73,0a.41.41,0,0,1-.37.52,1.06,1.06,0,0,0-.82.39c-.21.28-.09.33.16.06s.24-.21.42-.13.24.38-.13.79-.48.43-.7.21Zm-1.26-1.61c-.13-.11-.06-.35.13-.47s.18-.17.14-.37,0-.27.16-.38.23-.19.23-.25.08-.11.25-.09c.4,0,.38.38,0,.77a2.14,2.14,0,0,0-.44.55c-.09.24-.3.36-.43.24Zm-.39-1.12c-.1-.23,0-.42.24-.42s.22,0,.22.25,0,.25-.2.27a.26.26,0,0,1-.26-.1Zm.75-.63c-.19-.1-.2-.3,0-.47s.21-.22.32-.32c.41-.4.71,0,.32.4a.83.83,0,0,0-.23.37c0,.13-.16.14-.39,0Zm13.59,8a4.26,4.26,0,0,1-.33-.86c-.12-.6-.77-1-.76-.45s.64,1.78.9,1.78a.48.48,0,0,1,.28.13C135.74,75.61,135.7,75.33,135.43,74.77Zm3.51.25a2.92,2.92,0,0,0-.67-.71c-1-.9-1.33-1.4-.78-1.33a4.16,4.16,0,0,1,.58.15,1,1,0,0,0,.7,0c.3-.09.39-.09.42,0a1.2,1.2,0,0,0,.66.35c.06,0,.08-.09,0-.25s.08-.33.39-.15.64,0,.7-.13,0-.2-.18-.32c-.32-.28-.3-.4.06-.35.52.07.76-.15.47-.44s-.1-.32.18-.32.64-.26.56-.44a.39.39,0,0,0-.24-.19c-.19,0-.25-.35-.07-.35a.52.52,0,0,0,.43-.49c0-.38-.26-.58-.81-.63s-.63-.1-.63-.48c0-.23-.19-.51-.35-.51l-.4.09c-.43.1-.61,0-.61-.37a1.25,1.25,0,0,0-.27-.61,1.15,1.15,0,0,1-.25-.49c0-.17.57-.15.8,0a1.3,1.3,0,0,0,.46.19c.26,0,.31.1.37.38a1.27,1.27,0,0,0,.31.54.66.66,0,0,0,.6.21c.35,0,.37,0,.43.25A1,1,0,0,0,142,69a.84.84,0,0,0,.81,0,.8.8,0,0,1,.41-.14c.24,0,.87-.37.87-.51a.85.85,0,0,1,.18-.28.54.54,0,0,0,0-.82c-.31-.33-.52-.36-.88-.12a.91.91,0,0,1-.52.17c-.21,0-.23-.06-.23-.39s0-.36-.27-.34a3.79,3.79,0,0,0-1.27.35c-.09.13-.3.08-.6-.16a2.62,2.62,0,0,0-1.16-.54,3.14,3.14,0,0,1-.81-.34,3.6,3.6,0,0,0-.57-.27c-.21,0,.13,1.9.59,3.21a4.92,4.92,0,0,0,.92,1.91c.15.11.33.06.33-.11s.26-.21.36,0,0,.43-.37.64a1.67,1.67,0,0,0-.56.49,1.1,1.1,0,0,1-1.18.53c-.37-.05-.42,0-.56.16a.88.88,0,0,1-.44.28c-.42.09-.41.33,0,.94a3.67,3.67,0,0,1,.37.57,2.29,2.29,0,0,0,.37.46c.25.27.45.4.58.4a.43.43,0,0,1,.27.08c.09.14.31.1.31,0Zm-5.19-.66c-.09-.09-.14,0-.08.19s.07.15.1,0A.25.25,0,0,0,133.75,74.36Zm-.69-.16a3,3,0,0,0-.51-1.31c-.08,0-.11.12-.11.5,0,.77.1,1,.56,1C133,74.42,133.07,74.32,133.06,74.2Zm13.83-.83a3.86,3.86,0,0,1,.19-.91,1.41,1.41,0,0,0,.08-.49v-.36l-.13.25a1.46,1.46,0,0,0-.12.51,6,6,0,0,1-.09.61c-.21.83-.28,1.22-.22,1.3S146.78,74.16,146.89,73.37Zm-6.23.81c0-.05-.11-.08-.25-.08s-.22,0-.11.08S140.66,74.28,140.66,74.18Zm-7.09-.38c0-.25-.14-.36-.14-.17s.09.38.15.38S133.6,73.92,133.57,73.8Zm9.14-.5a.42.42,0,0,0,.12-.24c0-.14-.76-.47-.94-.4a.68.68,0,0,0-.31.62c.06.26.92.28,1.13,0Zm-7.84-.73c.16-.32.24-.33.51-.06s.23.2.49.08.26-.16.22-.32,0-.2.13-.23a.38.38,0,0,0,.25-.18,2.8,2.8,0,0,0-.51-1.37c-.28-.27-.2-.48.23-.56.24,0,.19-.44-.08-.7s-.19-.3-.2-.82a5.94,5.94,0,0,0-.08-.85.33.33,0,0,1,.07-.37c.23-.23.18-.54-.17-.94s-.4-.6,0-.64.3,0,.32-.29a.4.4,0,0,1,.25-.36.47.47,0,0,0,.26-.26c.09-.3.06-.7,0-.7s-.53.33-.53.46a1.58,1.58,0,0,1-.36.48,1.33,1.33,0,0,0-.36.53.83.83,0,0,1-.27.42c-.24.25-.27.26-.33.11s0-.26.14-.47a3.25,3.25,0,0,0,.46-1.26c0-.14-.05-.19-.2-.19s-.8.47-.8.67a1.1,1.1,0,0,1-.23.45c-.23.3-.24.44-.08.89,0,.12,0,.25-.23.47s-.29.32-.2.58.08.31-.25.65-.35.41-.3.61-.17.65-.42.65-.45.09-.45.37a.79.79,0,0,1-.23.51c-.27.29-.28.38,0,.77a.62.62,0,0,1,.12.4s0,.22.1.39.22.32.4.34a.45.45,0,0,1,.36.29c.16.32.25.33.39.06s.07-.26-.07-.53-.16-.35,0-.55.22-.34.31-.48.21-.27.27-.27.34.64.43,1.24a.61.61,0,0,1-.14.59c-.22.26-.16.49.18.6s.59.08.73-.21Zm9.72-.37a5.59,5.59,0,0,1,.36-1c.16-.38.39-1,.5-1.31s.3-.88.41-1.22.27-.88.35-1.22a12.36,12.36,0,0,1,.76-2.15c.11-.13.19-.45.11-.45s-.7.71-.86,1.22c0,.11-.25.57-.46,1a18.55,18.55,0,0,0-1.31,4.25c-.1.6-.18,1.16-.18,1.25,0,.3.25,0,.32-.36ZM131,71.82c.3-1,.31-.95,0-1l-.39-.07a3.18,3.18,0,0,0-.12,1.52c.16.29.38.12.54-.43Zm7.32-.31A1.11,1.11,0,0,0,138,69.9c-.23-.11-.25-.16-.25-.57a2.22,2.22,0,0,0-.27-1,3.89,3.89,0,0,1-.27-.64.31.31,0,0,0-.13-.17c-.11-.08-.15-.07-.23.06s-.12.5,0,.5.25.23,0,.74-.18.53-.1.69.14.2.19.2.12.5,0,.9c-.23.57-.19.71.23.82a1.24,1.24,0,0,1,.46.21.42.42,0,0,0,.64-.12Zm13.19,0a2.74,2.74,0,0,0,.7-1.48c.17-.94.1-1.47-.19-1.47a1.2,1.2,0,0,0-.17.47c-.06.26-.24.93-.41,1.49C151,71.86,151.05,72,151.52,71.51Zm-4.11-.37a2.24,2.24,0,0,0,.16-.59,2.82,2.82,0,0,1,.18-.61,2,2,0,0,0,.17-.57c0-.2.12-.54.19-.77s.28-.86.46-1.42.42-1.3.54-1.63c.25-.68.28-1,.11-1s-.42.55-.43.85a3.35,3.35,0,0,1-.23.86c-.12.34-.3.88-.4,1.21s-.28.88-.4,1.21a3.61,3.61,0,0,0-.24,1,2.87,2.87,0,0,1-.17.81c-.19.48-.23.82-.11.82S147.36,71.24,147.41,71.14Zm-3.77-.3s-.12-.08-.27-.08-.27,0-.27.08.12.08.27.08S143.64,70.88,143.64,70.84Zm-14-.73a3.28,3.28,0,0,1,.37-.87c.12-.15.2-.32.17-.36s-.46-.08-.6.07c-.31.31-.46,1.93-.17,1.77A2,2,0,0,0,129.68,70.11Zm18.78-.63c.14-.4.29-.83.34-1A2.74,2.74,0,0,0,149,68a.93.93,0,0,1,.12-.37.87.87,0,0,0,.12-.35,3.91,3.91,0,0,1,.2-.61c.2-.47.27-.94.12-.81a2,2,0,0,0-.23.66,2.64,2.64,0,0,1-.25.76,3.56,3.56,0,0,0-.28.76,6.39,6.39,0,0,1-.45,1.38c-.25.59-.28.78-.16.78A2,2,0,0,0,148.46,69.48Zm-4.76.33s-.16,0-.3,0-.22.07-.12.12S143.79,69.89,143.7,69.81Zm-13-.44c0-.05,0-.15-.08-.22s-.15-.12-.15.09S130.57,69.53,130.68,69.37Zm25.09-.24a1.62,1.62,0,0,0,.79-.52,3,3,0,0,1,.67-.58c.85-.48,2-2.69,2.64-5a4.91,4.91,0,0,0,.26-2.2,2.62,2.62,0,0,0-.36-1.63c-.31-.58-1-1.26-1.2-1.26s-.12.09-.06.59a18.06,18.06,0,0,1,0,3.52,13.92,13.92,0,0,1-1.56,4.27c-.51.91-1.55,2.06-1.72,1.9s0-.16.15-.35a12.19,12.19,0,0,0,1.94-3,8,8,0,0,1,.31-.9,9.44,9.44,0,0,0,.58-3.47c.06-1.47-.05-2-.47-2.42a1.57,1.57,0,0,0-1.69-.29c-.42.2-.43.3,0,.46a3.59,3.59,0,0,1,.55.26c.2.13.2.13.2-.07s.3-.29.45,0a4.41,4.41,0,0,1,.19,3.73c-.46,1.64-1.22,3.27-1.48,3.19s-.1-.45.06-.62a8.83,8.83,0,0,0,.92-2.33,5.84,5.84,0,0,0,.35-1.91,2.64,2.64,0,0,0-.35-1.7c-.13-.12-.14-.08-.09.56a11.21,11.21,0,0,1-.68,4.32c-.16.38-.31.78-.34.89a1,1,0,0,1-.25.41,2.27,2.27,0,0,0-.35.49c-.52,1-1.94,2.44-2.44,2.44-.25,0-.17.39.15.69a3.08,3.08,0,0,0,2.89.53Zm-24.16-.71a4.82,4.82,0,0,1,.59-.46c.22-.13.25-.18.19-.4-.12-.48-.1-.57.18-.71s.34-.36.19-.83c-.06-.2,0-.23.24-.34a1.06,1.06,0,0,0,.59-1.08.79.79,0,0,1,.23-.61c.29-.35.3-.44.05-.56a.71.71,0,0,0-.54,0,.85.85,0,0,1-.46,0,10.7,10.7,0,0,0-2.27,0c-.09.08.08.62.21.7a3.59,3.59,0,0,0,1.13-.3,2,2,0,0,1,1.17,0c.2.15.14.26-.23.37a.73.73,0,0,0-.4.27c-.12.24-.21.26-.67.12-.28-.09-.42-.1-.49,0a.85.85,0,0,1-.43.08c-.3,0-.37,0-.57.32a.8.8,0,0,1-.49.37c-.2,0-.3.13-.41.38s-.19.85,0,.93.08.19.05.38c-.08.53.35.35.47-.2,0-.24.1-.27.41-.29a1.46,1.46,0,0,0,.61-.19c.25-.16.43-.14.43,0a1.15,1.15,0,0,1-.27.37c-.18.18-.26.33-.22.43s0,.23-.16.37-.24.21-.42.12-.46,0-.46.23.28.5.77.5a.77.77,0,0,1,.49.12c.15.16.14.17.53-.18Zm-3.2-.55c0-.07,0-.12,0-.12a.35.35,0,0,0-.19.12c-.09.1-.09.12,0,.12A.22.22,0,0,0,128.41,67.87Zm24.66-.52a5.65,5.65,0,0,0,2-2.45c.18-.34.36-.68.41-.75s.16-.41.26-.73.22-.73.27-.88a14.72,14.72,0,0,0,.37-2.65c0-1-.3-1.4-1-1.15a.74.74,0,0,1-.41.07c-.11-.1-.51.34-.67.75s-.32,1-.24,1a1.54,1.54,0,0,0,.37-.24c.26-.21.33-.23.59-.16a1.23,1.23,0,0,1,.43.2,2,2,0,0,1,.12,1.28c-.14.12-.28-.16-.27-.53s-.18-.58-.41-.5-.19.11,0,.41a1.22,1.22,0,0,1,.05,1c0,.13-.19.56-.33,1a7.28,7.28,0,0,1-.84,2.07l-.19.21,0-.28a3.57,3.57,0,0,1,.23-.61,14,14,0,0,0,.68-1.92c.16-.59.15-1,0-1.18s-.14-.16-.28,0A16.74,16.74,0,0,0,152.6,65a10.39,10.39,0,0,0-.39,2c0,.46.07.78.21.78a3.4,3.4,0,0,0,.65-.4Zm0-1a1.9,1.9,0,0,1,.45-.88c.14-.07.08.29-.13.73S153,66.54,153,66.3ZM128.27,67c.55-.22.64-.3.64-.56a2.5,2.5,0,0,1,.6-1.33c.23-.24.3-.37.24-.43s-.65,0-1.09.31a1.58,1.58,0,0,1-.4.19,2.54,2.54,0,0,0-1,.88c-.1.16-.25.4-.34.53s-.15.22,0,.22a2,2,0,0,0,.51-.17c.2-.09.39-.15.42-.12s0,.17-.09.32-.13.38,0,.38l.55-.22Zm8.69-.27c0-.3-.15-.38-.28-.16s-.05.4.14.4S137,66.85,137,66.69Zm13.77-.41a5.17,5.17,0,0,1,.3-.68,18.88,18.88,0,0,0,.7-2.29c.07-.27.21-.76.31-1.09a4.64,4.64,0,0,0,.18-.78c0-.27-.26.22-.36.68s-.73,2.56-1.12,3.63a7.45,7.45,0,0,0-.32,1c0,.21.15,0,.31-.49Zm-6,.17c.24-.42.24-.48-.09-1.08a1.2,1.2,0,0,1-.22-.93l.06-.43-.35-.2-.36-.2-1.25.1c-.7.06-1.61.11-2,.12-1.44,0-1.89.09-2,.3s0,.65.3.94.23.19.35.05.19-.14.6-.09a2.25,2.25,0,0,1,.66.16c.24.15.49.14.56,0s.29-.14.43.11.4.39.54.26.4-.08.58.2.33.35.6.13a.39.39,0,0,1,.65.24,1.27,1.27,0,0,0,.77.65S144.62,66.62,144.72,66.45Zm-3.67-.11c.09-.28.08-.3-.12-.3s-.33.2-.18.36S141,66.56,141.05,66.34Zm7-1.14a.19.19,0,0,0,0-.19c-.17-.09-.35.15-.35.45v.29l.17-.2A1.09,1.09,0,0,0,148,65.2Zm.42-.06c0-.11,0-.11-.09,0a.51.51,0,0,0-.09.25c0,.1,0,.1.09,0A.51.51,0,0,0,148.43,65.14Zm-22.68-.29c.21-.26.34-.36.51-.36s.21,0,.13.16a.65.65,0,0,0-.1.24c0,.14.32.1.57-.08.48-.33.72-.41.93-.28s.27.1.61-.28c.21-.22.25-.33.2-.54a1.89,1.89,0,0,1,.05-.65c.1-.35.1-.4-.06-.5s-.47-.11-1.3,0c-.53.1-.83.41-1.42,1.49-.69,1.25-.74,1.57-.12.75Zm11.44.27a1.26,1.26,0,0,1-.05-.29c0-.06,0-.08-.09-.06a.41.41,0,0,0,0,.48C137.15,65.37,137.24,65.3,137.19,65.12Zm8.8.06c0-.27-.54-1-.74-1s0,.42.27.77.47.46.47.25Zm-21.66-.45c-.38-.32-.57-.4-.57-.23s.68.8.86.63S124.59,65,124.33,64.73Zm26.53-.94c.24-.76.47-1.54.5-1.74l0-.37-.22.41a10.4,10.4,0,0,0-.73,2.36c0,.22-.08.5-.11.61s0,.18,0,.15a12.91,12.91,0,0,0,.5-1.42Zm-4.37.62c0-.23-.06-.32-.31-.47-.44-.27-.65-.24-.34,0a1.77,1.77,0,0,1,.34.5c.13.33.31.29.31-.07Zm-20.66-.11c.06-.15-.18-.4-.44-.46a3.18,3.18,0,0,1-.94-1.13,2.8,2.8,0,0,0-.26-.6c-.26-.5-.33-.77-.19-.77s.51.49.62.8a1.14,1.14,0,0,0,.23.39c.2.14.17-.21,0-.47s-.37-.79-.26-.85.18,0,.3.16c.28.25.34.26.27,0s0-.25.35,0,.35.17.2-.12,0-.41.34-.16.45.13.21-.23-.17-.38.13-.32.2,0,.23-.14.07-.18.31-.16l.29,0-.13-.23c-.15-.25-.07-.38.18-.29a.54.54,0,0,0,.31,0c.13,0,.14-.08.07-.19s-.11-.22.18-.28c.14,0,.26-.1.26-.16s.16-.21.37-.08.2.1.3,0,.15-.12.51,0a1.23,1.23,0,0,0,1.14-.1,2.69,2.69,0,0,1,.53-.19,4.59,4.59,0,0,0,.78-.32,4.5,4.5,0,0,1,.82-.32,1.37,1.37,0,0,0,.51-.24,2.61,2.61,0,0,1,1.08-.47,8.49,8.49,0,0,0,1.77-.52,2.56,2.56,0,0,1,1.06-.16l.85,0a.35.35,0,0,0,.2-.17c.09-.14.06-.17-.19-.27a4.57,4.57,0,0,0-1.37-.21,1.27,1.27,0,0,1-.79-.36.83.83,0,0,1-.17-.4,1,1,0,0,0-.2-.46,1.38,1.38,0,0,1-.2-.29.36.36,0,0,0-.26-.16.24.24,0,0,1-.23-.21c0-.15-.06-.17-.29-.13s-.51-.06-.45-.28,0-.18-.29-.07-.27.06-.36-.06a.48.48,0,0,0-.23-.15,1.82,1.82,0,0,1-.36-.07.33.33,0,0,0-.41.11.79.79,0,0,1-.49.21,1.6,1.6,0,0,0-.57.19.92.92,0,0,1-.42.16,1.12,1.12,0,0,0-.4.1c-.21.08-.25.07-.36-.06s-.14-.14-.35,0-.24.1-.33,0a.53.53,0,0,0-.35-.13c-.21,0-.28.06-.42.33a.94.94,0,0,0-.06.93,3.11,3.11,0,0,0,1.19,1.28,2.6,2.6,0,0,0,1.85,0,3,3,0,0,0,.64-.28c.15-.17.37-.14.3,0-.18.39.12.54.67.34.32-.12.52,0,.34.19a.35.35,0,0,0,0,.3c0,.16,0,.16,0,0a.24.24,0,0,0-.44,0,.25.25,0,0,1-.27.13.22.22,0,0,0-.26.11c-.08.13-.15.15-.35.11s-.27,0-.29,0-.21.05-.43,0a.84.84,0,0,0-.46,0c-.08.06-.22.07-.7.07h-.46a.59.59,0,0,1-.34-.08.32.32,0,0,0-.22-.08.88.88,0,0,1-.42-.24c-.23-.21-.25-.27-.18-.49s0-.46-.3-.65a.54.54,0,0,1-.31-.4.9.9,0,0,0-.11-.33,2.75,2.75,0,0,1-.17-.77c0-.37-.1-.84-.13-1-.06-.36-.06-.36.2-.36s.41-.07.23-.25-.18-.12-.35,0a.39.39,0,0,1-.43-.05c-.12-.07-.22-.16-.22-.2a2.35,2.35,0,0,0-.48-.39c-.36-.25-.48-.38-.48-.53a.73.73,0,0,0-.28-.45,1.5,1.5,0,0,1-.33-.41,7.32,7.32,0,0,1-.09-1.26c0-1,0-1.13-.19-1.3a.69.69,0,0,1-.17-.33.61.61,0,0,0-.22-.32,1.23,1.23,0,0,1-.55-1c0-.24,0-.3-.15-.33-.31-.05-.41-.18-.35-.44s.08-.51.12-.83c.07-.69.23-.83.32-.28l.06.36.17-.25c.17-.25.18-.25.71-.21a2.64,2.64,0,0,0,.74,0c.16-.05.22,0,.26,0s.17.12.35.12a1.24,1.24,0,0,1,.3,0,1.06,1.06,0,0,1-.36.61c-.09,0-.17.12-.17.16s.23.09.35,0a.37.37,0,0,1,.24-.12c.1,0,.09,0,0,.26-.29.42-.25.56.12.51s.45,0,.09.29-.41.49.06.45c.17,0,.21.15.07.28s0,.11,0,.18.18.38,0,.42-.12.15-.13.3,0,.43-.06.63a1.57,1.57,0,0,0,.22,1,1.24,1.24,0,0,1-.06.55c-.17.63-.16.68,0,.37s.31-.28.39.11.16.35.27.19.22,0,.22.31.06.44.23.31.29.05.29.54.11.59.33.59c.06,0,.14-.11.17-.24s.09-.24.14-.24a.6.6,0,0,0,.25-.13c.14-.11.16-.1.33.19s.45.58.45.44a2.33,2.33,0,0,0-.08-.31.48.48,0,0,1,0-.36c.07-.08.12-.07.26.09l.18.19.2-.23c.2-.22.21-.22.48-.1a.5.5,0,0,0,.56,0c.63-.25.72-.31.77-.5s.09-.2.63-.2.6,0,.74-.18l.17-.18.28.23a.64.64,0,0,1,.29.43.21.21,0,0,0,.17.24c.14,0,.18.11.18.33s0,.3.22.36.22.13.22.19a.29.29,0,0,0,.17.2c.13.07.18.17.18.4s.05.34.17.41a.37.37,0,0,1,.18.31c0,.33.08.45.26.41s.18,0,.25.22.12.27.22.26.21.09.29.22.14.23.29.11.17-.13.27,0a.2.2,0,0,0,.26.12.25.25,0,0,1,.22,0c0,.05.15.08.26.08a.54.54,0,0,1,.35.16c.12.12.2.14.32.08s.33-.1.65.22l.3.29.4-.1a1.81,1.81,0,0,1,1.23,0,1.61,1.61,0,0,0,.72.11,2.44,2.44,0,0,1,1.48.47,2.33,2.33,0,0,0,.59.28.94.94,0,0,1,.55.36,2.26,2.26,0,0,0,.43.48c.35.3.41.51.45,1.42.07,1.68.27,1.78.75.36a3.07,3.07,0,0,0-.16-1.73l-.15-.25,0,.24c0,.31-.15.4-.32.28a.48.48,0,0,1-.12-.41.75.75,0,0,0-.09-.41.33.33,0,0,1-.1-.23.83.83,0,0,0-.2-.36,2.73,2.73,0,0,1-.33-.45.74.74,0,0,0-.32-.29.53.53,0,0,1-.25-.15.44.44,0,0,0-.28-.08c-.14,0-.24,0-.26-.15s-.14-.17-.37-.18-.35-.07-.26-.38c0-.09-.05-.12-.3-.1s-.33,0-.33-.2,0-.19-.11-.11a.28.28,0,0,1-.46-.07c-.08-.21-.17-.2-.34,0s-.34.25-.3-.12-.05-.39-.4-.1l-.26.22.06-.32a.69.69,0,0,0,0-.37c-.08-.07-.58.17-.72.35s-.37.18-.37-.13,0-.28-.19-.29l-.33,0-.25,0c-.06,0-.11-.08-.11-.17s-.17-.21-.33-.06a.13.13,0,0,1-.2,0c-.06-.06,0-.17.06-.37q.34-.63-.39-.15c-.21.13-.22.13-.17-.06s.08-.28.12-.38,0-.17-.21-.17-.28,0-.31-.26a2.48,2.48,0,0,1-.05-.42c0-.37-.07-.6-.17-.69a.52.52,0,0,1-.1-.31c0-.11,0-.23-.08-.25a1.14,1.14,0,0,1-.08-.89c0-.06.08-.12.06-.13l-.27-.16a.41.41,0,0,1-.24-.31,4.28,4.28,0,0,0-.12-1.14s0-.14.07-.24.11-.19-.3-.45a2.08,2.08,0,0,1-1-1.1c0-.21-.11-.26-.32-.3s-.26-.08-.27-.27,0-.24-.37-.22-.48-.09-.15-.38.28-.31,0-.31a.61.61,0,0,0-.37.23c-.24.3-.35.3-.67,0s-.47-.29-.64.06-.16.27-.21.17,0-.27.18-.5.27-.35.41-.31a1.32,1.32,0,0,0,.56-.09,1,1,0,0,1,.85,0,2.11,2.11,0,0,1,1.6,1.9,1.27,1.27,0,0,0,1.12,1c.69.09.93-.23,1-1.29a3.53,3.53,0,0,0-.42-2c-.23-.45-.31-.54-.5-.54a.45.45,0,0,1-.51-.32.46.46,0,0,0-.35-.26.39.39,0,0,1-.32-.21c-.05-.12-.11-.15-.27-.11a.27.27,0,0,1-.32-.12.37.37,0,0,0-.27-.16.89.89,0,0,1-.31-.08l-.44-.17a2.58,2.58,0,0,1-.69-.44,1.6,1.6,0,0,0-.56-.34c-.23,0-.61-.45-.61-.72s-.09-.29-.35-.48a1.9,1.9,0,0,1-.35-.3s.11-.09.24-.14l.24-.08-.29-.1c-.31-.1-.38-.32-.11-.32a.31.31,0,0,0,.23-.09c.08-.11-.13-.23-.36-.2s-.19-.2.13-.3.4-.31,0-.36l-.35,0,.29-.14c.15-.08.28-.17.28-.21s-.65-.09-.86,0-.53.09-.36-.09a1.4,1.4,0,0,1,.36-.24c.13-.06.25-.15.25-.19s-.29-.09-.61.09-.4.16-.32-.06,0-.31-.13-.28-.3-.1-.51-.3a1.33,1.33,0,0,0-.49-.32c-.12,0-.13,0,0-.15.2-.34,0-.42-.33-.16a.9.9,0,0,1-.4.15c-.14,0-.16,0-.12-.24s.06-.25-.15-.12a.53.53,0,0,1-.51,0,1.35,1.35,0,0,1-.37-.16.52.52,0,0,0-.28-.07c-.21,0-.65-.41-.65-.6s.1-.15.22-.19a.46.46,0,0,0,.27-.2.32.32,0,0,1,.25-.12.46.46,0,0,0,.31-.12.29.29,0,0,1,.28-.07c.09,0,.16,0,.16,0s.13-.07.29-.06.29,0,.31-.2.08-.22.2-.22.17,0,.17-.16,0-.15.17-.12.2,0,.23-.07.51-.17.87-.05.3.4.1.83c-.08.18-.1.3,0,.39a.49.49,0,0,1,0,.34.31.31,0,0,0,.08.31.29.29,0,0,1,.08.26c0,.18.12.3.25.18s.56.27.61.51.1.15.28.13.23,0,.23.1.09.12.31.12a.47.47,0,0,1,.42.16.45.45,0,0,0,.32.16c.17,0,.2,0,.16.19s0,.2.3.15.34,0,.34,0a2.86,2.86,0,0,1-.27.4c-.38.51-.32.72.09.32s.61-.2.31.16-.17.37.09.26.35,0,.05.48-.38.87-.09.54.43-.28.43-.12a1.64,1.64,0,0,1-.18.44c-.25.46-.11.61.19.21s.5-.47.4-.22a2.31,2.31,0,0,0-.12.49c-.06.43.09.44.33,0s.44-.43.44-.16c0,.11,0,.16.17.16s.18,0,.18.33,0,.32.17.19.35-.11.36.14.13.4.29.17.29-.25.37.13l.06.34.15-.18c.23-.24.34-.22.4.1s.43.75.53.65,0-.14,0-.25a1.55,1.55,0,0,1-.1-.52c0-.26,0-.32.15-.3a.47.47,0,0,1,.26.21.93.93,0,0,0,.21.28c.08.07.09,0,0-.19s0-.32.07-.38.14-.07.18,0,.22.09.31-.12.12-.23.36-.1.2.08.36-.1a.48.48,0,0,1,.35-.17.4.4,0,0,0,.3-.07.44.44,0,0,1,.33,0,.4.4,0,0,0,.37-.09c.12-.11.18-.11.44,0s.34.08.43,0,.16,0,.3.08a.33.33,0,0,0,.31.13.81.81,0,0,1,.47.11,2.18,2.18,0,0,0,.4.15,1.91,1.91,0,0,0,1-.7,4.26,4.26,0,0,1,1-.8c.94-.52,1.13-.68,1-.8s-.06-.62.31-.62a.3.3,0,0,0,.29-.2.28.28,0,0,1,.3-.2.7.7,0,0,0,.4-.16.72.72,0,0,1,.36-.16,2.77,2.77,0,0,0,.53-.09c.29-.08.36-.07.5,0s.18.12.25,0,.13-.12.34,0,.25.09.09.2a.52.52,0,0,1-.33.07.16.16,0,0,0-.21.07c-.06.13-.38.24-.94.32-.35.06-1.09.61-1,.75a1.39,1.39,0,0,0,.47.21,2.8,2.8,0,0,1,.6.29.92.92,0,0,0,.41.17.81.81,0,0,1,.48.29c.26.27.27.27,1.08.3a4.28,4.28,0,0,0,2.93-.59,15.55,15.55,0,0,0,1.5-.74,5.38,5.38,0,0,1,2.67-1.08A10.88,10.88,0,0,0,159,37a14.21,14.21,0,0,0,2.57-.91,2.53,2.53,0,0,1,.81-.19,4.67,4.67,0,0,1,1.52.29,3.45,3.45,0,0,0,.61.18,8.32,8.32,0,0,1,2.18.64c.36.17.91.39,1.22.5a6.5,6.5,0,0,0,3.16.44,10.85,10.85,0,0,1,2.38.12,13.34,13.34,0,0,1,2,.62,4.6,4.6,0,0,1,1.85,2.59c.1.51.1.56-.18,1.38-.22.65-.26.88-.19,1a.63.63,0,0,1-.28.71.21.21,0,0,0-.14.2c0,.17-.43.8-.55.8s-.07.07-.07.15a.41.41,0,0,1-.41.31c-.21,0-.29,0-.29.2s-.14.29-.45.29a.14.14,0,0,0-.16.16c0,.22-.21.27-.62.16a.68.68,0,0,0-.68.1,1.35,1.35,0,0,1-.83.18,1.47,1.47,0,0,1-.62-.12c-.12-.08-.16-.06-.29.11s-.21.2-.3.17-.27,0-.4.23a.57.57,0,0,1-.44.18,1,1,0,0,0-.43.1,1.3,1.3,0,0,1-1,0c-.23-.1-.27-.1-.4,0a1.08,1.08,0,0,1-1,0,1,1,0,0,0-.46-.16c-.29,0-.38,0-.47.09s-.22.14-.63.12l-.52,0-.19.42c-.21.43-.23.59-.14.8s.2.16.4,0,.39,0,.21.36a2.12,2.12,0,0,0-.14.39c0,.13.34.15.5,0s.31-.13.25.24,0,.36.08.44.13.11.26-.27a.18.18,0,0,1,.34,0,.83.83,0,0,1,0,.42.78.78,0,0,0,.07.66l.17.34.17-.49c.13-.35.22-.49.33-.49s.19.18.08.63,0,.48.12.48a.32.32,0,0,1,.22.16c.16.27.26.17.26-.28s.13-.63.27-.43a.84.84,0,0,1,0,.44,1.23,1.23,0,0,0,.15.78,1.43,1.43,0,0,0,.26.44s.1-.11.13-.24a.55.55,0,0,1,.14-.28s.08-.22.08-.44c0-.51.14-.5.2,0s.23.68.45.6.14-.14.14-.32,0-.28.09-.28.09.16.09.35,0,.36.11.36a.33.33,0,0,0,.34-.31c0-.29.25-.31.25,0s.17.43.31.34a.87.87,0,0,0,.19-.26c.08-.16.15-.2.32-.17a.65.65,0,0,1,.37.24c.13.18.15.18.25.05a.22.22,0,0,1,.28-.07.87.87,0,0,0,.31,0c.09,0,.18.07.24.22.12.32.26.31.41,0s.26-.35.33-.18.08.08.24,0,.22-.08.29,0,.65.12.72,0a.29.29,0,0,1,.21-.08A.45.45,0,0,0,176,52a.75.75,0,0,1,.3-.18.83.83,0,0,0,.34-.49c.21-.55.26-.6.54-.46a.38.38,0,0,0,.46,0c.21-.11.24-.17.21-.53s0-.46.29-.27a.72.72,0,0,0,.33.11c.18,0,.21-.25.06-.6s0-.33.26-.16.33.17.45,0a.38.38,0,0,0,0-.41c-.15-.33-.71-.54-1.49-.54h-.6l0,.22c0,.21,0,.22-.4.22a.75.75,0,0,0-.6.18c-.11.11-.24.17-.32.14-.34-.12-.56-.13-.68-.05s-.34.05-1.07-.08a11.43,11.43,0,0,1-1.26-.28,4,4,0,0,0-1-.13,3.15,3.15,0,0,1-.86-.08c-.22-.16-.1-.28.33-.37a3.18,3.18,0,0,1,1.68.08,3.18,3.18,0,0,0,1.38.11,3.46,3.46,0,0,0,2.15-.64c1.19-.76,1.29-.82,1.45-.82a8.87,8.87,0,0,0,1.72-.61,6.34,6.34,0,0,0,2.79-2.59,3.61,3.61,0,0,0,.18-2.42,4,4,0,0,0-1-2.4c-.16-.13-.17-.21-.13-1a2,2,0,0,0-.25-1.45,5.31,5.31,0,0,0-.57-.93c-.25-.3-2.89-2.49-3.54-3a1.94,1.94,0,0,0-.71-.3.69.69,0,0,1-.47-.24.48.48,0,0,0-.43-.19.68.68,0,0,1-.38-.09c-.08-.06-.22-.06-.56,0s-.47.09-.56,0-.19-.11-.39-.08a1,1,0,0,1-.49-.07,1.05,1.05,0,0,0-.47-.05c-.18,0-.3,0-.37-.07s-.2-.11-.4-.08-.31,0-.39-.11a.23.23,0,0,0-.29-.12.41.41,0,0,1-.37-.09.5.5,0,0,0-.35-.12.38.38,0,0,1-.32-.13.55.55,0,0,0-.29-.19.26.26,0,0,1-.21-.18c0-.26-.15-.3-.44-.16s-.62.1-.62-.05-.1-.07-.21-.07a.48.48,0,0,1-.36-.2c-.19-.27-.4-.24-.79.1s-.35.27-.51.18-.21-.08-.34.07-.43.23-.43.09-.37-.09-.57.08-.48.14-.48-.05-.18-.14-.4,0-.56.15-.62,0-.08-.1-.26,0-.48.09-.48-.13,0-.19-.29,0-.22.11-.32,0-.13-.1-.37,0-.29.09-.37,0a.76.76,0,0,0-.43,0c-.26,0-.32,0-.32-.08s-.09-.16-.35,0a.29.29,0,0,1-.37,0,.77.77,0,0,0-.32-.09.26.26,0,0,1-.23-.13c0-.12-.07-.12-.22,0a.44.44,0,0,1-.38.09.27.27,0,0,0-.31.11c-.15.22-.27.2-.4-.09s-.13-.23-.26-.11a.44.44,0,0,0-.15.27.52.52,0,0,1-.12.29c-.12.15-.13.15-.31,0s-.18-.14-.23,0c-.13.37-.22.5-.34.5a.25.25,0,0,1-.18-.08c-.09-.13-.17-.09-.33.16s-.39.31-.47.12-.3-.13-.44.16-.25.34-.48.15-.17-.11-.3.12-.19.25-.37.22-.23,0-.26.07-.36.13-.52-.09-.31-.25-.45,0-.35.2-.42,0-.17-.2-.46.13-.46.31-.46,0-.1-.25-.28,0-.42.31-.49.07-.09-.15-.19-.12c-.53.15-.53.15-.53,0s-.13-.26-.36,0-.48.26-.55.09-.12-.1-.23-.07A.5.5,0,0,1,149,32c-.11-.08-.16-.07-.33.07a.8.8,0,0,1-.43.17.49.49,0,0,0-.33.12.36.36,0,0,1-.3.09.49.49,0,0,0-.35.07c-.15.1-.2.1-.36,0s-.2-.09-.3.05-.16.14-.32.11-.29,0-.54.23-.5.34-.76.16-.34,0-.26.26-.13.36-.38.21-.29-.08-.29.19-.12.44-.34.34-.34-.11-.4.11a.2.2,0,0,1-.39,0c-.05-.36-.36-.08-.36.33,0,.25-.21.26-.4,0l-.14-.18-.15.17-.25.32c-.08.13-.13.13-.28,0s-.2-.08-.29.1-.22.25-.42,0l-.15-.17-.21.33c-.21.35-.46.43-.56.19s-.1-.1-.31.13-.28.26-.41.21a.76.76,0,0,0-.33-.05.66.66,0,0,1-.37-.08c-.18-.08-.24-.07-.42.08s-.22.17-.35.05a.41.41,0,0,1-.14-.24c0-.16-.23-.2-.43-.07s-.36.08-.36-.21,0-.24-.21-.28a.88.88,0,0,0-.4,0c-.26.13-.36,0-.3-.23s0-.24-.16-.27a2.32,2.32,0,0,0-.56,0c-.32,0-.35,0-.35-.17s0-.2-.44-.18-.45,0-.55-.18-.15-.2-.47-.18-.39,0-.46-.11a.61.61,0,0,0-.32-.16c-.17,0-.21-.07-.19-.21s0-.19-.34-.15-.37,0-.41-.08a.19.19,0,0,1,.1-.22c.21-.14.18-.19-.21-.24s-.46-.16-.22-.24.18-.27,0-.28h-.36c-.31,0-.84-.41-.84-.69s0-.18.41-.18a.91.91,0,0,1,.59.15,2.94,2.94,0,0,0,1.19.53.4.4,0,0,0,.09-.29c0-.18-.12-.35-.45-.67s-.43-.46-.39-.59a.39.39,0,0,0-.09-.37c-.14-.19-.14-.22,0-.3s.19-.32,0-.4-.07-.16,0-.32,0-.28,0-.31-.06-.08,0-.16,0-.27-.13-.27a.93.93,0,0,0-.39.24,4.93,4.93,0,0,1-.92.5A7.43,7.43,0,0,0,128,30a7.24,7.24,0,0,0-.45.77,2,2,0,0,1-.81.95,6.46,6.46,0,0,0-.69.54,1.86,1.86,0,0,1-.5.32,4.78,4.78,0,0,0-1.74,1.47,2.73,2.73,0,0,0-.78,1.36,3.2,3.2,0,0,1-.48,1.06c-.53.74-.55.78-.44,1s.07.23-.08.41a.78.78,0,0,0-.19.29,2.44,2.44,0,0,1-.22.5,2.48,2.48,0,0,0-.25,1,3.58,3.58,0,0,1-.16.93c-.1.26-.1.3,0,.39s.15.21.15.45,0,.37.19.45.17.16.13.34,0,.27.17.41a.51.51,0,0,1,.21.31.36.36,0,0,0,.16.24,1.11,1.11,0,0,1,.6,1.1c0,.43,0,.57-.12.6s-.29-.13-.23-.36,0-.26-.35-.53a1.38,1.38,0,0,0-.56-.35c-.22,0-.37.26-.42.71a4.11,4.11,0,0,1-.71,1.79,2.67,2.67,0,0,0-.3.55c0,.06.11.18.24.27s.22.18.11.24a.52.52,0,0,1-.21.07s0,.09.11.19.24.34.06.43-.12.14,0,.49.07.45,0,.53-.06.15.06.27.16.17,0,.39-.19.45.11.94a2.09,2.09,0,0,1,.26.52c0,.16-.36.45-.5.4s-.12,0-.07.14a1.43,1.43,0,0,1,.08.37c0,.16,0,.2-.19.18s-.24,0,0,.21.17.18.07.28a.35.35,0,0,1-.23.12c-.1,0-.1,0,0,.16s.08.17,0,.28a.54.54,0,0,0-.09.36c0,.13,0,.23-.07.23s-.1.1-.1.23a1.65,1.65,0,0,1-.13.52.76.76,0,0,0-.08.51,2.72,2.72,0,0,1,.08.6,1.91,1.91,0,0,0,.2.77c.11.21.24.47.28.57s.13.2.17.2c.21,0,.7,1,.85,1.73s.19.77.43,1a1.15,1.15,0,0,0,.38.27,1.54,1.54,0,0,0,.46-.76s-.08-.15-.18-.23c-.26-.21-.22-.28.18-.28s.42-.05.17-.31-.22-.32.13-.32.39-.08.09-.33c-.47-.41,0-.54.45-.14.33.25.43.28.52.15s-.14-.26-.39-.47a3.16,3.16,0,0,1-.45-.43s.08,0,.18,0,.17,0,.17.07a1.07,1.07,0,0,0,.61.21c.08-.08-.13-.31-.5-.54-.59-.35-.4-.7.2-.38.22.12.31.14.31.06s-.18-.19-.4-.29a1.37,1.37,0,0,1-.39-.25v-.12s.1,0,.21,0a.3.3,0,0,0,.27-.06c.12-.17-.14-.28-.64-.28h-.49l-.21-.39a4.59,4.59,0,0,0-.45-.67,2,2,0,0,1-.66-1.63c0-.62.2-1.22.38-1.22s.2.3.09.65a1.91,1.91,0,0,0,.07,1.35,3.27,3.27,0,0,0,1.09,1.1c.16.07.52.21.79.3a1.31,1.31,0,0,1,.81.58,3,3,0,0,1,.58,1.57c0,.46-.38,1.05-1.16,1.8a6.56,6.56,0,0,0-.84.93c-.13.25-.13.27.07.46a1.19,1.19,0,0,0,.53.25c.77.11.65.35-.27.52-.48.08-.57.13-.59.28s0,.17.06.17.4.55.5.92a3.73,3.73,0,0,0,.82,1.37c.36.18.36.08,0-.7s-.39-1-.19-.91a.59.59,0,0,1,.24.27l.46.8c.5.89,1.19,1.43,1.35,1.06Zm-4.69-4.53a.09.09,0,0,1,.18,0,.09.09,0,0,1-.18,0Zm9.13-11.24s.06-.08.14-.08.12,0,.09.08a.21.21,0,0,1-.15.08A.08.08,0,0,1,130.27,48.53Zm.83-1.07c-.13-.12-.14-.39,0-.39a.54.54,0,0,1,.36.37C131.44,47.58,131.25,47.59,131.1,47.46Zm0-.76c-.16-.14-.28-.57-.19-.69s.22-.08.41.25S131.48,47,131.14,46.7Zm45-.09c-.26-.1-.08-.19.35-.19s.45,0,.35.12A.81.81,0,0,1,176.1,46.61Zm1.9-.8a.83.83,0,0,0-.57-.18c-.46,0-.47-.14,0-.25.27-.07.35-.14.38-.29a.45.45,0,0,1,.13-.26c.1,0,.14-.25.16-.74a1.92,1.92,0,0,1,.39-.61,3.47,3.47,0,0,0,.84-2,1.2,1.2,0,0,1,.19-.43.5.5,0,0,0,.08-.37.29.29,0,0,1,.12-.34.57.57,0,0,0,.18-.39.85.85,0,0,1,.1-.4.25.25,0,0,0,0-.26,2,2,0,0,1-.19-.46,5,5,0,0,0-.29-.66,1.41,1.41,0,0,1-.17-.41c0-.26-.23-.56-.39-.52s-.61-.34-.61-.59,0-.17-.17-.1-.33,0-.38-.28a.48.48,0,0,0-.25-.26.75.75,0,0,1-.33-.33l-.1-.23-.83,0c-.69,0-.86,0-1-.15a1.13,1.13,0,0,0-.53-.15,1.06,1.06,0,0,1-.48-.12,1.38,1.38,0,0,0-.58-.13,1.2,1.2,0,0,1-.58-.12.38.38,0,0,0-.26-.07.49.49,0,0,1-.56-.21c0-.11-.14-.17-.31-.17-.33,0-.48-.14-.36-.34s.07-.25-.42-.14-.44.1-.61-.11a.54.54,0,0,0-.3-.22c-.09,0-.13-.07-.11-.22s0-.23-.24-.24l-.38,0c-.06,0-.14-.12-.2-.26s-.13-.23-.32-.19a.49.49,0,0,1-.37-.05c-.12-.09-.12-.12,0-.25s.12-.18,0-.25-.18-.06-.42,0-.67.18-.73,0a.46.46,0,0,0-.27-.16c-.18,0-.21-.09-.17-.25a.72.72,0,0,0,0-.45c-.09-.23-.08-.25.23-.36a.55.55,0,0,1,.58,0,1.44,1.44,0,0,0,.42.12.75.75,0,0,1,.37.13.64.64,0,0,0,.42.08,1.93,1.93,0,0,1,1.17.59.36.36,0,0,0,.29.12.29.29,0,0,1,.24,0,1.32,1.32,0,0,0,.81,0c.22-.09.32,0,.43.34s.27.59.33.45.3-.1.46.24a1.56,1.56,0,0,0,.33.46c.13.1.17.09.28,0s.14-.14.46.15.4.35.56.21.19,0,.45.12.56.28.56.1.13-.16.29,0a2.63,2.63,0,0,0,.85.55c.12,0,.11,0,0-.24-.22-.39-.15-.45.2-.17s.39.25.53.22a.79.79,0,0,1,.47.12c.36.22.47.19.47-.12a.7.7,0,0,0-.31-.55c-.38-.33-.4-.4-.07-.4.62,0,1,.56.89,1.38a2.36,2.36,0,0,0,0,.74,4,4,0,0,0,.69.73,8.82,8.82,0,0,1,1.07,1.14c.41.54.46.65.45,1a2.11,2.11,0,0,1-.15.73,1.71,1.71,0,0,0-.15.59c0,.22,0,.29.25.36a.82.82,0,0,0,.36,0c.07,0,.1,0,.07,0a.4.4,0,0,1-.26.08.59.59,0,0,0-.37.16c-.13.13-.14.18,0,.28s.46.14.93-.21.82-.39.53,0a1,1,0,0,0-.19.46c0,.31-.56.71-1.14.81a1,1,0,0,0-.79.46c-.34.45-.53,1-.39,1.08s.58.11,1-.08c.2-.09.38-.15.41-.12s-.19.29-.55.38c-1,.24-1.06.26-1,.43s.08.17.36.16.34,0,.34.1-.12.2-.61.27-.43.08-.46.24a.47.47,0,0,0,.18.39c.11.11.16.2.12.2a1.14,1.14,0,0,1-.65-.11c-.16-.12-.57.06-.56.24a.56.56,0,0,0,.13.3c.12.15.11.3,0,.3a.74.74,0,0,1-.26-.18Zm3.2-4.11c.56-.31.25-.56-.34-.29-.16.08-.27.19-.27.29S180.82,41.9,181.2,41.7ZM131,45.63a.45.45,0,0,1-.13-.43.33.33,0,0,0-.14-.37.55.55,0,0,1-.18-.38c0-.13,0-.23-.08-.23s-.37-.26-.37-.49a.38.38,0,0,0-.11-.3,4.2,4.2,0,0,1-.56-.65,3.86,3.86,0,0,0-.65-.72.66.66,0,0,1-.26-.27.81.81,0,0,0-.39-.29,3.47,3.47,0,0,1-.85-.44c-.07-.06-.16-.06-.32,0a.42.42,0,0,1-.38,0c-.13-.08-.21-.07-.36,0a.66.66,0,0,1-.46.08.38.38,0,0,0-.36.07.43.43,0,0,1-.29.12,1.72,1.72,0,0,0-.6.25,1.35,1.35,0,0,1-1.32.21,1.77,1.77,0,0,1-.46-.55c-.22-.39-.22-.42-.08-.57a1,1,0,0,1,1-.2c.21.1.28.11.28,0s.15-.22.33-.37l.34-.25-.28-.27a2.72,2.72,0,0,1-.78-1.44c0-.43.21-.63.65-.65s.37,0,.37.14,0,.14.22.11.23,0,.23.51.14,1.15.34,1.21.29,0,.11-.3a1.27,1.27,0,0,1-.18-.73c0-.51.13-.63.23-.2a1.07,1.07,0,0,0,.16.37c.08.09.12,0,.19-.2s.32-.47.32-.18.15.46.21.39a2.42,2.42,0,0,0,.16-.36c.17-.4.4-.51.31-.13s.1,1.06.22,1.06.1-.18.12-.4a2.11,2.11,0,0,1,.22-.67l.16-.27,0,.48,0,.47.26-.37c.39-.56.59-.5.32.08-.15.33-.18.76-.06.76s.15-.14.22-.32.43-.54.54-.44,0,.21-.09.41c-.16.42-.11.53.16.31s.38-.06.22.33c-.25.64-.13.9.29.61s.66-.14.66.1a.49.49,0,0,0,.14.31c.13.13.13.17,0,.45a1.24,1.24,0,0,1-.32.42.42.42,0,0,0-.18.32c0,.18,0,.2.13.11a.33.33,0,0,0,.14-.2c0-.17.34-.47.5-.44s.1.1-.18.42-.38.62-.17.68c0,0,.19-.09.3-.25s.23-.29.28-.29.1,0-.11.42-.11.6.24.31.31-.07.08.2-.06.76.23.51c.08-.08.09,0,0,.25s0,.34.09.34a.36.36,0,0,0,.25-.2c.11-.21.26-.27.25-.1a.86.86,0,0,1-.13.3,1.21,1.21,0,0,0-.13.52,1,1,0,0,1-.16.51c-.13.18-.13.25,0,.5s.09.3,0,.35-.23.1-.44-.14Zm-7.55-4.34s0-.09,0-.12-.09,0-.09.07S123.37,41.41,123.44,41.29Zm4.44-.65s0-.08-.09-.08-.14,0-.14.08a.09.09,0,0,0,.08.08A.25.25,0,0,0,127.88,40.64Zm-.28-.49s0-.08,0-.08a.19.19,0,0,0-.15.08,0,0,0,0,0,0,.08A.2.2,0,0,0,127.6,40.15Zm-5.46,5c-.07-.07-.09-.14-.06-.17s.33,0,.33.17S122.28,45.31,122.14,45.15Zm58-2c-.14-.09,0-.3.16-.25s.6-.14.91-.4a.61.61,0,0,1,.39-.17c.13,0,.13,0,0,.21-.3.38-1.2.76-1.46.61Zm-58.09-1.86c-.07-.15.07-.41.2-.38s.1.45,0,.49a.15.15,0,0,1-.17-.11Zm29.31-6.48c-.45-.28-.68-.59-.51-.68a2.56,2.56,0,0,1,.64,0,1.6,1.6,0,0,0,.67-.08.41.41,0,0,1,.31,0c.14,0,.21,0,.24-.12s.12-.16.29-.15a1.17,1.17,0,0,0,.39,0,.69.69,0,0,1,.35,0c.24.06.44,0,.44-.16s.08-.11.17-.11c.27,0,.46-.09.46-.21s.1-.12.27-.12a.44.44,0,0,0,.35-.13.47.47,0,0,1,.33-.15.72.72,0,0,0,.37-.18c.12-.14.13-.14.41,0s.41.14.27-.09-.11-.46.15-.57.26-.09.63.29l.39.39-.06-.37-.06-.36.22.13a.39.39,0,0,0,.34.07,1.93,1.93,0,0,1,1.09.45,1.89,1.89,0,0,0,.91.38.45.45,0,0,1,.31.14c.19.2.41.22.41,0s.14-.14.31.09.41.26.41,0,0-.16.16-.11a2,2,0,0,0,.41.08.82.82,0,0,1,.42.16.25.25,0,0,0,.35,0,.41.41,0,0,1,.34,0,1.57,1.57,0,0,0,.4.09,4.2,4.2,0,0,1,.47.08c.18,0,.26,0,.3-.08s.09-.11.38,0,.57.15.57,0,0-.16.33,0a1.29,1.29,0,0,0,.8.11,1.35,1.35,0,0,1,.85.13,1.07,1.07,0,0,0,.59.13.32.32,0,0,1,.32.08.45.45,0,0,0,.27.12,1.65,1.65,0,0,1,.54.25.9.9,0,0,0,.57.21c.23-.06.51.08.51.24s0,.11-.15.07a4.49,4.49,0,0,0-.7-.09,9.61,9.61,0,0,1-1.21-.16,6.57,6.57,0,0,0-2.63.09,9.89,9.89,0,0,1-3.69.36c-.13-.05-.47-.14-.74-.21a3,3,0,0,1-.81-.31,7,7,0,0,0-.86-.42,3.19,3.19,0,0,0-1.67-.22,5.6,5.6,0,0,0-1.58.14c-.39.12-1.77.65-2.24.87a1.76,1.76,0,0,1-.54.07,6.74,6.74,0,0,0-1,.13c-.82.15-.76.16-1.24-.14Zm-4,29.73s0-.08,0-.08-.06,0-.09.08a0,0,0,0,0,0,.08A.1.1,0,0,0,147.35,64.49Zm2.42-.88a6,6,0,0,0,.29-.94,13.62,13.62,0,0,1,.37-1.42c.71-2.44.86-3.35.58-3.35-.08,0-.16.1-.2.22s-.11.43-.18.67-.19.78-.27,1.18a4.09,4.09,0,0,1-.22.86,2,2,0,0,0-.13.39c-.06.31-.44,1.61-.63,2.14s-.18,1,.05,1a3.48,3.48,0,0,0,.34-.8Zm-12.38.55a.25.25,0,0,1,.32-.11c.17,0,.26,0,.41-.2.27-.35.22-.53-.17-.59a3.42,3.42,0,0,1-.8-.27,1,1,0,0,0-1.22.09c-.29.21-.5.22-1.12,0-.27-.08-.29-.07-.29.08a.82.82,0,0,0,.09.33c.09.14.16.16.46.11s.39,0,.54.15l.18.21.25-.16a1.1,1.1,0,0,1,.51-.19c.26,0,.4.13.53.53.06.19.17.19.31,0Zm-12-.35c0-.13-.89-.83-1-.76s.3.54.55.73S125.39,64,125.39,63.81Zm4.82-.44a2,2,0,0,1,1.52-.38,4.59,4.59,0,0,0,1,0l1.08-.19a2.06,2.06,0,0,1,1.08,0c.48.13.48.13.7-.07s.2-.24.15-.38a2.55,2.55,0,0,1-.07-.59c0-.39,0-.41-.32-.49a1.11,1.11,0,0,1-.58-.42c-.24-.31-.28-.34-.42-.23-.35.29-.55.06-.68-.77,0-.2-.07-.45-.09-.55-.06-.26-.88-.72-1.42-.79a.91.91,0,0,0-.77.14,5.12,5.12,0,0,1-.83.33c-.71.2-1.72,1.07-1.72,1.49a1.8,1.8,0,0,1-.4.66,2.08,2.08,0,0,0-.41.62c0,.26.36.24,1,0a2.67,2.67,0,0,0,1.35-1.16c.13-.27.59-.5.73-.37s0,.14-.16.28-.26.19-.07.28.89.13,1,0a.67.67,0,0,1,.37-.08c.25,0,.33.05.4.2a.46.46,0,0,0,.38.25c.38.08.7.34.7.59s-.18.24-.73,0c-.39-.19-.47-.2-.7-.11a1.16,1.16,0,0,1-1.05-.18c-.34-.24-.64-.11-1.1.47a2.85,2.85,0,0,0-.39.58,1.8,1.8,0,0,1-.36.47c-.38.4-.4.43-.31.66s.8.11,1.15-.19ZM147,63.31a.35.35,0,0,0-.29-.2c-.23,0-.23.08,0,.36S147.16,63.63,147,63.31Zm-6.33-.42.35-.13-.19-.32c-.21-.37-.42-.48-.58-.28s-.4.17-.89-.07-.67-.21-.55,0-.13.4-.29.4a.92.92,0,0,1-.42-.27,1.28,1.28,0,0,0-.59-.32,1.22,1.22,0,0,1-.52-.26c-.27-.26-.35-.26-.52,0s-.12.3-.05.4a3.62,3.62,0,0,0,1.35.85.68.68,0,0,1,.33.14,8.17,8.17,0,0,0,2.57-.15Zm7.11-.09a9.53,9.53,0,0,0,.83-2.51,1.65,1.65,0,0,1,.08-.47c.17-.38,0-.29-.36.17-.19.26-.49.65-.67.88s-.37.47-.43.55a3.9,3.9,0,0,1-.49.4c-.5.34-.49.51.07.94S147.56,63.2,147.78,62.8Zm-29-.27a1,1,0,0,0,.26-.33c.13-.23.14-.33.07-.46s-.06-.21.08-.37.22-.36,0-.8-.4-.61-.66-.44a.86.86,0,0,1-.38.13c-.12,0-.16,0-.12.15a.51.51,0,0,1-.18.38c-.11.13-.19.29-.17.36s.06.29.09.49a4.44,4.44,0,0,0,.34,1.28c.07.08.15,0,.33-.13a1.93,1.93,0,0,1,.33-.26Zm-.66-.66c-.13-.12.14-.56.34-.56a.37.37,0,0,1,.37.38C118.8,62,118.32,62.07,118.09,61.87Zm24.65.86a4.15,4.15,0,0,0,1.6-.54c.19-.19.26-.42.35-1.16.05-.38,0-.42-.24-.64s-.29-.25-.23-.68,0-.48-.28-.93a2.2,2.2,0,0,0-.66-.62.55.55,0,0,1-.38-.5c-.08-.44-.36-.73-.64-.68a1.08,1.08,0,0,1-.63-.27c-.56-.4-1.12-.47-1.41-.19s-.28.21-1.77.26l-.73,0,0,.36a3.32,3.32,0,0,0,.08,1.43,2.78,2.78,0,0,0,.74,1.11c.19.18.21.34,0,.47s-.17,0-.33-.15a.59.59,0,0,0-.36-.25,1,1,0,0,1-.44-.21.55.55,0,0,0-.41-.15c-.11,0-.18,0-.28-.25a.93.93,0,0,0-.56-.47c-.37-.16-.43-.23-.54-.59-.19-.61-.63-.85-1.12-.61a1.62,1.62,0,0,1-.52.11c-.43,0-.47.22-.16.74a1.77,1.77,0,0,1,.23.53c0,.17.32.43.69.56a1.09,1.09,0,0,0,.7,0c.75-.17.86.16.22.65-.23.18-.25.23-.14.35s.26.16.57.17a1.56,1.56,0,0,1,1,.37l.52.35.38-.13.38-.14.19.21a.41.41,0,0,0,.63.09c.27-.18.47-.15.61.1s.46.3.5,0a2,2,0,0,0-.2-.74,2.82,2.82,0,0,1-.23-.84c0-.3-.19-.53-.35-.44a.35.35,0,0,1-.41-.17.54.54,0,0,1,.08-.36c.2-.34.17-.58-.11-.77s-.23-.2-.15-.62.27-.59.57-.3a1.58,1.58,0,0,1,.33,1.31c0,.38,0,.48.09.52a1,1,0,0,1,.31.35c.22.4.43.47.54.2a1,1,0,0,0,.09-.33c0-.22.37-.79.46-.7s.06.15,0,.29a5.89,5.89,0,0,0-.23,1.8c0,.12.11.21.16.21s.63-.75.74-1.22.12-.45.36-.48a1.29,1.29,0,0,0,.47-.15c.28-.17.48-.08.48.22a.4.4,0,0,1-.24.38c-.2.12-.22.18-.19.44s0,.51-.49.53l-.5,0c-.11,0-.17.19-.39,1s.11,1.22.68,1.12l.59-.09Zm10.26-1a10.56,10.56,0,0,0,.85-2.09c.06-.25.14-.61.19-.79a3.74,3.74,0,0,0,.08-.63c0-.16.11-.83.23-1.49l.29-1.48c0-.2,0-.26,0-.22a.22.22,0,0,0-.11.17,2.05,2.05,0,0,1-.12.46c-.19.54-.66,1.91-.86,2.55a9.47,9.47,0,0,0-.28,1.14c-.05.31-.13.74-.18.94s-.13.6-.19.89-.12.6-.14.67c-.08.25.13.16.29-.12Zm-6.25-.54a13.62,13.62,0,0,0,1.33-1.6,12.69,12.69,0,0,0,1.2-2.52,12.34,12.34,0,0,1,.85-1.77c.29-.5.62-1.13.73-1.39s.5-1,.88-1.71c.65-1.15.69-1.27.68-1.74s-.12-.82-.42-.89a.46.46,0,0,1-.33-.32c-.13-.32-.18-.33-.49-.14a2.63,2.63,0,0,1-.93.16,9.15,9.15,0,0,0-1.26.17,1.82,1.82,0,0,0-1.41,1.26c-.28.87-.15,1,.65.64a6.47,6.47,0,0,1,1-.34,2.31,2.31,0,0,0,1-.61c.68-.58,1.36-.87,1.61-.68s.11.14-.08.43a.75.75,0,0,0-.16.67,1,1,0,0,1,0,.5c-.08.2-.57.42-1.13.48a3.85,3.85,0,0,0-1.69.67,3.33,3.33,0,0,0-.52.58,1.15,1.15,0,0,0-.26.86,2.87,2.87,0,0,1-.77,2,1.36,1.36,0,0,0-.5,1.42,4.67,4.67,0,0,1,.35,2.13,5.92,5.92,0,0,1-.51,1.45,2.35,2.35,0,0,0-.18.31c-.09.19-.08.21,0,.17a1.55,1.55,0,0,0,.33-.18ZM151.37,60c.14-.48.38-1.19.54-1.57a16.07,16.07,0,0,0,.58-1.88,11.44,11.44,0,0,1,.87-2.65,5.77,5.77,0,0,1,1.42-2.15c.44-.43.45-.55,0-.46a3.9,3.9,0,0,0-1.38,1.05A10.65,10.65,0,0,0,152,56.1c-.11.56-.24,1.13-.29,1.27a4,4,0,0,0-.13.85,11.2,11.2,0,0,1-.55,2.47,1.85,1.85,0,0,0-.12.48c0,.35.25-.19.5-1.13Zm-6-.22a2,2,0,0,1-.07-.68,1.69,1.69,0,0,0-.66-1.47c-.31-.28-.54-.43-.69-.43a1.3,1.3,0,0,1-.48-.12c-.31-.14-.33-.1-.17.37a.75.75,0,0,0,.31.41,1.77,1.77,0,0,1,.45.4,1.52,1.52,0,0,0,.45.41.88.88,0,0,1,.44,1c-.05.34,0,.4.16.51S145.5,60.26,145.36,59.82Zm4.66-.15a6.68,6.68,0,0,1,.25-.84c.19-.43.19-1,0-1s-.33.53-.37,1.15a3,3,0,0,1-.12.68,1.46,1.46,0,0,0-.1.48C149.69,60.52,149.88,60.26,150,59.67Zm-31.54-.14a2.73,2.73,0,0,0-.41-1.15c-.14,0-.18.15-.1.35a.33.33,0,0,1,0,.38c-.17.21-.29.21-.51,0s-.18-.12-.25,0,0,.33.27.33a.54.54,0,0,1,.32.08.86.86,0,0,0,.72,0Zm18.91-.72a1.07,1.07,0,0,0-.16-.48,1.55,1.55,0,0,1-.19-.51,1.05,1.05,0,0,0-.59-.82c-.3-.1-.33-.1-.52,0s-.15.13,0,.62a1.06,1.06,0,0,0,.48.73,5.12,5.12,0,0,1,.54.44c.26.24.4.25.44,0Zm15.06-.28c.15-.34.2-.75.09-.78s-.16.16-.26.7,0,.44.17.08ZM117.39,58a1,1,0,0,0,.23-.3.55.55,0,0,1,.35-.29c.17,0,.23-.1.21-.25s0-.54-.08-.95l-.06-.76h-.26a.47.47,0,0,1-.4-.19.6.6,0,0,0-.45-.23l-.31,0v.57c0,.81,0,.94.37.94a1.2,1.2,0,0,1,.47.1l.33.15a.23.23,0,0,1,.14.21c0,.13-.06.15-.4.13-.53,0-.67.08-.59.5a2,2,0,0,0,.1.4c0,.07.23.07.35,0Zm-.25-1.37c-.11-.1-.06-.41.07-.52a.19.19,0,0,1,.28,0c.17.13.17.29,0,.45S117.23,56.71,117.14,56.62Zm38,1.16a4.53,4.53,0,0,0,.35-1.45,10,10,0,0,1,.41-2.14,2.33,2.33,0,0,0,.25-.82c-.15-.13-.82,1.3-1.05,2.25a18.32,18.32,0,0,0-.47,2.38c0,.38.26.26.51-.22ZM151.32,57c0-.22,0-.39-.08-.36a1.15,1.15,0,0,0-.15.78C151.21,57.58,151.32,57.39,151.32,57Zm-.63.13c0-.26-.21-.23-.26,0s0,.18.12.18.14-.08.14-.21Zm56.56.08s-.15-.33-.33-.67-.36-.71-.4-.81a.31.31,0,0,0-.31-.19.33.33,0,0,1-.28-.56c.3-.3,0-1-.48-1s-.52-.19-.4-.59.08-.34-.15-.57-.29-.23-.36-.19-.1.18.05.72c0,.19,0,.23-.18.3a1.61,1.61,0,0,0-.44.25c-.25.21-.41.2-.53,0a.29.29,0,0,1,.29-.45.34.34,0,0,0,.26-.16c.08-.13.06-.18-.11-.28a.48.48,0,0,0-.7.07c-.26.25-.37.26-.59,0a.66.66,0,0,0-.42-.16.32.32,0,0,1-.36-.22c-.38-.88-.68-1.18-1.17-1.14s-.52-.17-.37-.47.17-.21.43-.21.33,0,.4-.2a.53.53,0,0,1,.66-.27.45.45,0,0,1,.06.61c-.12.11-.08.48.05.46s.11-.16.14-.33c.05-.36.26-.44.53-.19s.31.21.46.05.07-.39-.18-.76-.2-.27-.35-.15-.52.17-.58,0,0-.28.34-.43.28-.17.32-.52a2.94,2.94,0,0,1,.31-.85c.51-.89.43-1.71-.35-3.62-.22-.54-.29-.71-.64-1.77l-.23-.7-.22.19a.73.73,0,0,1-.36.2c-.34,0,0,.88.61,1.68a3.64,3.64,0,0,1,.75,1.7,3.26,3.26,0,0,1-.7,2c-.26.44-.41.6-.59.64a1.66,1.66,0,0,0-.47.22l-.65.44a1.54,1.54,0,0,0-.71,1.24,1.42,1.42,0,0,1-.24.57c-.2.31-.22.39-.13.59.28.59-.2.91-.55.37-.12-.19-.25-.29-.35-.27a1.06,1.06,0,0,1-.82-.48c-.16-.23-.19-.44-.22-1.39,0-.62-.05-1.42-.09-1.77a2.83,2.83,0,0,1,0-1c.1-.33.09-.35-.17-.22s-.57-.18-.49-.48a.81.81,0,0,0-.17-.59l-.23-.35-.16.32c-.09.18-.34.58-.55.9-.35.53-.38.6-.28.8s.28.24.35,0a.25.25,0,0,1,.28-.2c.21,0,.22,0,.19.47s0,.47.21.56a.32.32,0,0,1,0,.6,3,3,0,0,0-.6.49c-.37.37-.41.44-.37.74s0,.36-.1.43-.12.13,0,.33.19.23.62.22.48,0,.54-.25,0-.27-.24-.45-.36-.6,0-.64a.9.9,0,0,0,.4-.22.71.71,0,0,1,.43-.2c.19,0,.21,0,.17.26s-.09.41-.14.59a.8.8,0,0,0,0,.59c.15.39-.05.7-.4.63-.19,0-.26,0-.26.07a.23.23,0,0,0,.09.18.29.29,0,0,1,.09.23c0,.3.1.31.37.05s.29-.24.44-.16a.34.34,0,0,1,.19.33c0,.25.21.34.3.12a.58.58,0,0,1,.23-.2c.22-.11.46.08.46.37s.92.34,1,0c0-.13.09-.17.29-.17s.27,0,.27.18a.36.36,0,0,0,.35.39,9.94,9.94,0,0,1,2.28.86,3.93,3.93,0,0,0,.8.37.94.94,0,0,1,.6.45,2.22,2.22,0,0,0,.57.54,14.45,14.45,0,0,1,1.51,1.21c1,.89,1.48,1.2,1.48,1Zm-2.34-2.38a.29.29,0,0,1,.26-.43c.22,0,.3.13.23.38A.26.26,0,0,1,204.91,54.82Zm-3.93-5c-.12-.1,0-.35.12-.49a.48.48,0,0,0,.18-.32.3.3,0,0,1,.45-.28c.26.13.23.35-.1.78S201.13,49.92,201,49.78Zm6.62,6.48c-.36-.67-.39-.65-.17.09.14.44.48.92.52.72a3,3,0,0,0-.35-.81Zm-61.23.09a4.44,4.44,0,0,1,.58-.81c.43-.48.45-.54.52-1.38a2.93,2.93,0,0,1,.31-1.11,2.45,2.45,0,0,1,1-1.07l.76-.54h.59c.78,0,.95-.14.87-.71a1.38,1.38,0,0,0-.14-.45s-.23.11-.42.32c-.52.59-.76.76-1.07.76a1.54,1.54,0,0,0-.6.16c-1.07.53-1.25.59-1.47.54-.42-.09-.47-.31-.24-1.1a2.26,2.26,0,0,1,1.29-1.65,2.56,2.56,0,0,1,1.49-.27c.87,0,.95,0,1.11-.19a1.81,1.81,0,0,0,.31-1.37c-.06-.49-.05-.51.37-1.18a7.12,7.12,0,0,1,.84-1,7.17,7.17,0,0,1,2.26-1.14,21.56,21.56,0,0,1,3.6-.45c.68,0,.78,0,.93.2s.21.27,0,.52-.25.2-1.31.25c-2,.1-4.07.66-4.76,1.32-.2.2-.22.27-.22,1.13s0,1-.61,1.52c-.32.28-.31.38.06.77a3.72,3.72,0,0,1,.4.5,1.48,1.48,0,0,1,0,1,.5.5,0,0,0-.05.29,1.79,1.79,0,0,0,.66-.21c.33-.14.91-.36,1.29-.47a3.33,3.33,0,0,1,1.55-.13,2.71,2.71,0,0,1,1.28.27A4.06,4.06,0,0,1,159,52c.49.77.89,1,2.39,1.33a9,9,0,0,1,.93.29c.83.33.84.32.82-.6l0-.79.36-.18a1.75,1.75,0,0,1,.61-.19.47.47,0,0,0,.29-.07,2,2,0,0,0-.29-.72,2.8,2.8,0,0,1-.39-1.58c-.05-.88-.07-1-.29-1.21a1.44,1.44,0,0,1-.3-.48c0-.12-.06-.26-.08-.31a2.65,2.65,0,0,1,.35-1.17,2.37,2.37,0,0,0-.38-2.18,4.54,4.54,0,0,0-2.34-1,19.51,19.51,0,0,0-2.64-.55,14.91,14.91,0,0,0-2.4.31,2.65,2.65,0,0,1-.53.12,10.44,10.44,0,0,0-2.37.79,5.62,5.62,0,0,0-1.8,1.59,4.37,4.37,0,0,1-.47.65,7,7,0,0,0-.54.68,7.43,7.43,0,0,1-2.06,1.68,8.67,8.67,0,0,1-2.33.49c-.31,0-1-.05-1.57-.12a4.09,4.09,0,0,1-1.69-.47c-1-.48-1.32-.93-1.32-1.73a2.14,2.14,0,0,1,1.43-1.9c.23-.12.91-.52,1.51-.88s1.33-.8,1.63-1a11,11,0,0,0,2.07-1.51,4.84,4.84,0,0,1,.76-.61c.53-.32.65-.46.62-.71s-.08-.2-.21-.2-.49-.19-.49-.38-.06-.15-.18-.15a1.72,1.72,0,0,1-.83-.64c-.07-.21-.26,0-.26.28s-.11.35-.33.12-.31-.2-.24.13,0,.29-.14.25-.22,0-.29.16-.13.2-.28.16a.38.38,0,0,0-.29,0,1.09,1.09,0,0,1-.37.09c-.22,0-.27.07-.3.26a.49.49,0,0,1-.25.35.41.41,0,0,0-.22.37c0,.17,0,.23-.17.23a.47.47,0,0,0-.28.12.46.46,0,0,1-.31.13.48.48,0,0,0-.29.08c-.07.07-.2,0-.45-.06a1,1,0,0,0-.65-.1,1.07,1.07,0,0,1-.66-.1,1.25,1.25,0,0,0-.79-.11c-.33,0-.46,0-.55-.08s-.36-.17-.36-.06.08.11.18.16.24.41.05.48a.59.59,0,0,1-.33,0c-.25-.13-.32,0-.16.18s.12.39-.05.39-.14.08-.19.18a.3.3,0,0,1-.33.17c-.22,0-.23,0-.22.35a1.08,1.08,0,0,0,.08.41.2.2,0,0,1-.1.35c-.27,0-.3.1-.1.3s.15.39-.11.31-.16,0-.11.08.08.13.11.13.47.33.41.41-.15.05-.27,0c-.28-.07-.28,0,0,.29a.91.91,0,0,1,.29.5,2.38,2.38,0,0,0,0,.33c0,.07-.1.1-.33.08-.38,0-.4,0-.2.42s.12.33-.17.3a.75.75,0,0,0-.44.28.67.67,0,0,1-.64.29c-.5,0-.69.11-.55.3s.44.22.66,0l.2-.23.28.31a1.27,1.27,0,0,1,.3.53,1.58,1.58,0,0,0,.25.84c.07,0,.07.17,0,.44s-.1.4.07.57a.35.35,0,0,1,.13.39.47.47,0,0,0,.09.39.69.69,0,0,1,.14.34,1.31,1.31,0,0,0,.32.52,1.54,1.54,0,0,1,.31.51,1.53,1.53,0,0,0,.11.42c.1.25.11.26.16.09s.21-.26.37,0c.26.46.27.47.41.31s.12-.14.33,0a.46.46,0,0,0,.39.13.38.38,0,0,1,.35.13c.22.22.5.22.5,0s.12-.21.28,0a.46.46,0,0,0,.32.12c.16,0,.21-.05.23-.22a.25.25,0,0,1,.24-.25.44.44,0,0,0,.29-.18.3.3,0,0,1,.19-.16,1.06,1.06,0,0,0,.33-.15l.69-.41c.61-.35,1-.34.62,0s-.93.84-1.25,1.17a1.33,1.33,0,0,1-.44.35c-.17,0-.53.38-.42.44a3,3,0,0,1,.43.52A3.7,3.7,0,0,0,144,55a1,1,0,0,0,.91,0c.32-.16.36-.15.36.14a.68.68,0,0,0,.24.49.76.76,0,0,1,.26.56c0,.32.16.56.33.56s.16-.17.27-.38Zm-7.2-.07.22-.15-.51-.05c-.6-.06-.88.06-.61.24a.86.86,0,0,0,.9,0ZM150.86,56v-.34l-.13.31c-.13.32-.1.5.05.42a.56.56,0,0,0,.08-.39Zm.77-.19c.07-.17,0-.32-.14-.18s-.1.31,0,.31S151.6,55.88,151.63,55.81Zm26-.24c1.06-.19,1-.21-.23-.24-1.71,0-3.33-.11-4-.16a13.77,13.77,0,0,1-2.82-.66,1.36,1.36,0,0,0-.42-.12,9.66,9.66,0,0,1-2-1.24,1.91,1.91,0,0,0-.52-.3,8.1,8.1,0,0,1-1.41-1.23,4.36,4.36,0,0,1-1.42-2.74,2.72,2.72,0,0,0-.17-.75s-.15.1-.26.22-.19.3-.16,1.08a2,2,0,0,0,.28,1.26,7.69,7.69,0,0,0,1.8,1.8c.31.18.34.23.32.5l0,.3,1.31.59c.72.33,1.51.66,1.76.73a2.1,2.1,0,0,1,.6.25,8.43,8.43,0,0,0,4,.59.51.51,0,0,1,.47,0,3.27,3.27,0,0,0,.5.19,9.2,9.2,0,0,0,2.42-.12Zm-26.61-.3s0-.05-.09,0a.23.23,0,0,0-.09.19c0,.12,0,.12.09,0A.42.42,0,0,0,151.05,55.27Zm-33.25-.22c0-.19,0-.25-.17-.25-.29,0-.46.09-.46.24s.08.25.38.25S117.8,55.26,117.8,55.05Zm-.7-.12.26-.19-.24-.2c-.27-.22-.28-.44,0-.58s.22,0,.44.14c.4.3.58.25.62-.14a1.43,1.43,0,0,0,0-.45c0-.12-.07-.12-.15,0a.39.39,0,0,1-.63,0,.69.69,0,0,0-.4-.28l-.31-.08V54c0,.85,0,1.14.17,1.14a1.7,1.7,0,0,0,.31-.2Zm34.79-.21a6.37,6.37,0,0,0,.25-.7,2.79,2.79,0,0,1,.18-.54c.06-.09.08-.17.06-.2s-.61.88-.68,1.3a1.16,1.16,0,0,0,0,.47S151.8,54.9,151.89,54.72Zm25,0c.18,0,.18,0,0-.12s-.62-.09-.62,0,.2.16.34.11a2.5,2.5,0,0,1,.32,0Zm-21.87-.43a1.87,1.87,0,0,0,.19-.46,3.33,3.33,0,0,1,1.6-1.47c.06,0,.07.09,0,.24s-.06.25.24.2c.64-.1.65-.11.2-.63-.29-.35-.67-.51-.67-.3s-.23.1-.36,0-.25-.15-.37.05-.07.2,0,.26.11.34-.13.53a2.48,2.48,0,0,0-.44.56c-.12.22-.3.54-.41.71-.19.34-.24.62-.11.62S155,54.44,155.05,54.29Zm20.12,0c.1-.06.08-.12-.12-.36-.48-.57-.69-.68-.69-.37,0,.16.49.81.62.8A.56.56,0,0,0,175.17,54.32Zm3.39-.11a5.77,5.77,0,0,0,2.53-1.62c1.51-1.29,1.87-1.5,2.81-1.62s1-.12,1.22-.35a3.73,3.73,0,0,1,.87-.45,2.65,2.65,0,0,1,1.58-.21,7.43,7.43,0,0,0,2.83-.29,7.61,7.61,0,0,0,2.38-2.24c.37-.49.8-1,1-1.22a2.92,2.92,0,0,0,.83-1.53c.07-.58,0-.87-.22-.81a.41.41,0,0,1-.33-.13.37.37,0,0,0-.39-.12c-.19,0-.22,0-.19-.1a.49.49,0,0,1,.27-.26,2.07,2.07,0,0,0,.68-1.28,2.77,2.77,0,0,1,.42-.72c1.14-1.46,1.07-1.32,1-2.09-.05-1.06-.42-1.54-.75-1-.19.33-.44.29-.48-.07s-.16-.37-1.3.47a4.21,4.21,0,0,1-2,.7,1.72,1.72,0,0,0-1,.49c-.37.32-.39.37-.33.66a1.46,1.46,0,0,1,.05.39s0,.24-.07.43-.1.35-.22.39-.16.11-.15.35,0,.3-.18.32-.2.08-.2.27-.05.23-.1.23-.13.1-.18.21-.11.2-.53.15l-.45,0,0,.28c0,.21-.08.28-.23.3s-.23.1-.29.31c-.12.38-.35.6-.64.6s-.29.07-.44.32-.27.33-.39.33-.18,0-.14-.27a5.78,5.78,0,0,1,.2-.75c.27-.84.27-.84,0-.94s-.31,0-.66.14c-.62.33-1.19.77-1.19.94a.32.32,0,0,1-.18.24c-.17.1-.17.11,0,.26s.14.16-.07.31-.19.18-.11.25a.36.36,0,0,1,.11.24c0,.11-.07.15-.28.15s-.27,0-.23.14-.08.37-.38.32-.44,0-.24.19a.36.36,0,0,1,.13.25c0,.15,0,.16-.59.11l-.59-.06.22.3a3.78,3.78,0,0,1,.37.64c.12.28.21.37.46.44s.33.06.46-.06a.24.24,0,0,1,.33-.07c.13.07.21.06.37-.07a1,1,0,0,1,.64-.16,1.17,1.17,0,0,0,.8-.28c.35-.25.36-.25.49-.1s.13.15.24,0c.3-.43.29-.43.49-.27s.18.14.34-.11.27-.3.38-.11.25.09.33-.2.22-.42.61-.42.37,0,.49-.29.17-.28.22-.28.13-.09.18-.19a.78.78,0,0,1,.3-.27.65.65,0,0,0,.29-.35.72.72,0,0,1,.24-.34.47.47,0,0,0,.2-.28.49.49,0,0,1,.26-.29,1.37,1.37,0,0,0,.32-.25.38.38,0,0,1,.23-.15,2.35,2.35,0,0,0,.54-.2,1.68,1.68,0,0,1,1.31-.12c.32.1.35.22.14.57s-.23.28-.35.22a.89.89,0,0,0-.28.18.72.72,0,0,1-.41.18c-.1,0-.17,0-.17.09a.34.34,0,0,1-.14.22c-.11.08-.16.08-.29,0s-.14-.09-.09.15-.07.41-.35.17-.24-.17-.32-.06a.92.92,0,0,0,0,.47c.06.35,0,.36-.18.31s-.23,0-.17.31-.08.65-.34.59-.17,0-.2.19a.3.3,0,0,1-.5.21c-.12-.11-.17-.09-.5.16a1.79,1.79,0,0,1-.45.28,14.33,14.33,0,0,0-2.59,1,2.5,2.5,0,0,1-1,.23,2.91,2.91,0,0,0-.83.12,1.7,1.7,0,0,1-.57.09,3,3,0,0,0-1.29.48,4.69,4.69,0,0,0-2.1,1.68A6.19,6.19,0,0,1,177.87,53a5.63,5.63,0,0,1-1.86.51c-.71.07-.74.1-.48.49.14.21.21.24.6.26a4.76,4.76,0,0,1,.8.09,3.94,3.94,0,0,0,1.63-.09ZM159.13,54a.37.37,0,0,0-.22-.56c-.34-.16-.69-.16-.76,0s-.07.23.13.47.75.3.85.08Zm24-.52c.76-.33,1.77-1.43,1.77-1.92,0-.15,0-.15-.41.09a1.51,1.51,0,0,1-.46.2c-.06,0-.17.1-.23.23a.5.5,0,0,1-.31.24,3.84,3.84,0,0,0-1.3,1.19c0,.19.49.17.94,0Zm-11.77-.18c-.09-.08-.1-.08,0,0s.08.13.11.1S171.45,53.37,171.39,53.32Zm-53.56-1.26a9.81,9.81,0,0,0,0-1.4.39.39,0,0,0-.31-.2c-.22,0-.26-.09-.26-.3s0-.24.27-.24.29-.05.31-.1a18.86,18.86,0,0,0,.08-2.47c-.06-.15-.38-.16-.43,0s-.06.21-.09.33a.44.44,0,0,1-.19.28.5.5,0,0,1-.49-.37.56.56,0,0,1,.46-.42c.27,0,.1-.23-.26-.33s-.33-.07-.38,0a37.65,37.65,0,0,0-.33,3.85c0,.93,0,1.12.07,1.12a.39.39,0,0,0,.23-.09c.17-.16.39,0,.39.25s-.05.26-.21.29a.82.82,0,0,1-.34,0c-.09,0-.14.07-.16.32s0,.35,0,.35a1.77,1.77,0,0,0,.77-.53c0-.17.21-.15.46,0s.21.16,0,.33-.17.17,0,.37a.89.89,0,0,0,.23.18S117.81,52.74,117.83,52.06Zm-1.06-.57a.48.48,0,0,1,.11-.59c.33-.16.65.25.36.46s-.41.18-.47.13Zm-.14-1.69a.3.3,0,0,1,.11-.48c.23-.14.47,0,.47.32s0,.24-.23.26a.49.49,0,0,1-.35-.1Zm.09-1.06a.35.35,0,0,1,.27-.57c.2,0,.22,0,.22.32s0,.33-.18.35A.37.37,0,0,1,116.72,48.74Zm42.05,3.68a1.06,1.06,0,0,0-.47-.37c-.31,0-.25.14.18.53S159.16,52.92,158.77,52.42Zm27.93,0c.21-.19.31-.61.13-.61-.41,0-1,.59-.71.74s.34.08.58-.13Zm-33.56-.26a5.1,5.1,0,0,1,.55-.62.93.93,0,0,0,.25-.31c0-.15-.2-.06-.66.31l-.48.39a1.25,1.25,0,0,0-.08.31C152.63,52.64,152.78,52.61,153.14,52.14Zm50.53.14c.47,0,.57-.1.38-.37a.54.54,0,0,0-.78-.21c-.27.11-.32.18-.34.44s0,.31.15.23a1.69,1.69,0,0,1,.59-.09Zm-15.31-.52a.34.34,0,0,1,.24-.13,4.61,4.61,0,0,0,1.84-1.39c0-.09,0-.16-.09-.16a3.64,3.64,0,0,0-1.13.44.43.43,0,0,1-.37.08c-.18,0-.21,0-.21.13s-.24.3-.44.13-.29-.16-.29.23a1,1,0,0,1-.23.65c-.12.17-.2.34-.17.38s.68-.18.85-.36Zm6.94.21c.19-.11-.25-.59-.52-.57a1.16,1.16,0,0,1-.42,0c-.15,0-.2,0-.25.13a1.26,1.26,0,0,0-.05.24c0,.07.44.22.76.26l.32,0a.34.34,0,0,0,.16-.05ZM158,51.68c0-.13-.23-.32-.61-.49s-.49-.17-.29,0a2.63,2.63,0,0,1,.34.37C157.66,51.79,158,51.89,158,51.68Zm40.51-.57a1.78,1.78,0,0,0,.37-.84,2.38,2.38,0,0,1,1.45-1.77,2.5,2.5,0,0,0,1.38-1.56c.34-.83.18-1.47-.66-2.64a6,6,0,0,1-1.13-3.51,2.38,2.38,0,0,0-.55-1.39.9.9,0,0,0-.46-.15c-.33,0-.55.31-.75,1.07a4.79,4.79,0,0,0,0,2c.19,2.49.15,2.9-.46,4.63a2.38,2.38,0,0,0-.22,1.3c0,.27.06,1,.07,1.6,0,1,0,1.13.19,1.28a.55.55,0,0,0,.81,0Zm-4.1-.38a.09.09,0,0,0-.09-.08c-.05,0-.09.06-.09.13s0,.1.09.07A.15.15,0,0,0,194.42,50.73Zm9.59-.22a8.16,8.16,0,0,1-.06-1,2.56,2.56,0,0,1,.26-1.32c.38-.85.33-1.22-.42-2.79-.33-.7-.69-1.52-.8-1.83s-.29-.77-.4-1a3.47,3.47,0,0,1-.27-.83.89.89,0,0,0-.15-.44c-.06,0-.07,0,0,.1s.11.48.19.88a12.58,12.58,0,0,0,.85,2.74c.62,1.58.67,2.43.18,3.39a1.53,1.53,0,0,0-.15,1,1.84,1.84,0,0,0,.58,1.32c.25.24.3.21.23-.13Zm-9-1.83c.25-.16.25-.18.11-.36s-.26-.24-.32,0c0,.12-.08.29-.11.37s0,.18.32,0Zm-14.19-.1c.26-.29-.22-.86-.62-.74-.24.07-.24.14,0,.53S180.59,48.77,180.77,48.58Zm1.13-.29c.13-.21.13-.26,0-.52a.86.86,0,0,0-1-.44c-.25.08-.31.18-.15.27a2,2,0,0,1,.31.44C181.4,48.6,181.68,48.68,181.9,48.29Zm-29.79-.1c.43-.42.46-.51.4-1.53l-.06-.94-.37.49c-.47.62-.52.78-.4,1.16a1.1,1.1,0,0,1,0,.65c-.13.52,0,.57.41.17Zm-6.2.1c.27,0,.85-.18,1.29-.3,1.18-.32,1.58-.69,3.56-3.19a6.57,6.57,0,0,1,1.68-1.48.85.85,0,0,0,.35-.16,3.32,3.32,0,0,1,.8-.31l1.63-.46a6.87,6.87,0,0,1,2.26-.33,12.13,12.13,0,0,1,1.57,0l1,.2a7,7,0,0,1,2.61.74,2.59,2.59,0,0,1,.77.68,5.5,5.5,0,0,1,.73,2c0,.3,0,.31.36.36a1,1,0,0,1,.76.66s.14,0,.29-.06a4.7,4.7,0,0,1,3.49-.6,5.23,5.23,0,0,0,2.45,0,10.29,10.29,0,0,1,1.53-.24,5.32,5.32,0,0,0,3-1.05c.34-.29,1-1.37.9-1.5a.33.33,0,0,0-.21-.06c-.15,0-.16-.06-.11-.75.05-.87.14-1,.67-1.09l.35,0-.05-.34a3.81,3.81,0,0,0-1.32-2.32,6.68,6.68,0,0,0-3.79-.87,11.79,11.79,0,0,1-2.07-.19,9.43,9.43,0,0,0-1.33-.17,2.27,2.27,0,0,1-.72-.11c-.14-.07-.54-.24-.89-.38l-.95-.41a3.93,3.93,0,0,0-.86-.23,10.76,10.76,0,0,1-1.81-.38,3.09,3.09,0,0,0-1.09-.13,4.72,4.72,0,0,0-2.51.8,6.62,6.62,0,0,1-2.4.38,2.68,2.68,0,0,0-1.23.32,4.31,4.31,0,0,1-.73.3.35.35,0,0,0-.21.13,4.74,4.74,0,0,1-1.67.91c-.41.05-.7.23-.66.42s-.78.91-1,.91a.13.13,0,0,1-.14-.13c0-.18-.19-.15-1.05.16a9.49,9.49,0,0,1-1.27.37,4.09,4.09,0,0,0-2.42,1.38A11.84,11.84,0,0,1,145.94,43a22.72,22.72,0,0,0-2.21,1.46,8.33,8.33,0,0,1-1.07.58c-.92.42-1,.53-1.14,1.27a1.18,1.18,0,0,0,.5,1.24,5.19,5.19,0,0,0,3.89.78Zm19.05-3a.85.85,0,0,1-.32-.71c.17-.39-.52-1.34-1.17-1.61a4,4,0,0,1-.5-.28,1.65,1.65,0,0,0-.54-.24l-.71-.2a6.36,6.36,0,0,0-.9-.2c-.28,0-.92-.18-1.41-.3a7.28,7.28,0,0,0-1.09-.21c-.27,0-1.36.08-2,.14-.48,0-.62,0-.74-.08s-.19-.23,0-.48a1.09,1.09,0,0,1,.63-.29,4.29,4.29,0,0,0,.72-.21,8.23,8.23,0,0,1,3.16-.46c1,0,2.59-.14,3.48-.24s2.24-.18,3-.19a6.84,6.84,0,0,0,1.38-.07c0-.15.56.19,1.34.81a9.54,9.54,0,0,0,1.08.78,1.9,1.9,0,0,1,.82,1.32,2.06,2.06,0,0,1-.81,1.36,3.52,3.52,0,0,1-1.67.55,3.69,3.69,0,0,0-.82.12,8.74,8.74,0,0,1-.89.17,2.23,2.23,0,0,0-1.3.49.48.48,0,0,1-.74,0Zm.9-.61a6.14,6.14,0,0,1,1.2-.33c2.18-.34,2.69-.5,3.19-1a.85.85,0,0,0,.21-1.1c-.21-.41-.47-.65-1.27-1.18a4.14,4.14,0,0,0-2.33-.75,4.37,4.37,0,0,0-1.49,0c-1.17.16-4.22.38-4.92.36l-1.14,0c-.79,0-1.48.1-1.48.26s.1.07.23.07a4.47,4.47,0,0,1,.84.16l1.14.25c2.33.43,3.69,1,4.47,1.74.6.59.72.79.72,1.16s.07.6.15.6a3.67,3.67,0,0,0,.48-.21ZM146,43.92a.21.21,0,0,1,.18,0s0,0-.12,0S145.9,44,146,43.92Zm8.51-2.9a.2.2,0,0,1,.14-.17c.07,0,.13,0,.13,0a.31.31,0,0,1-.13.17C154.51,41.13,154.48,41.12,154.48,41Zm-4.11-.34c.2-.14.32-.16.32,0a.09.09,0,0,1-.08.08,1,1,0,0,0-.25.05C150.21,40.81,150.21,40.8,150.37,40.68Zm4.88,0a.21.21,0,0,1,.17-.08,1.58,1.58,0,0,0,.44-.21c.41-.25.45-.14.06.16s-.79.3-.67.13Zm-.95-1.5a.77.77,0,0,1,.47-.53c.33-.11.32,0,0,.3s-.43.32-.43.23Zm10.16,8.49a.76.76,0,0,0,.23-.59.59.59,0,0,0-.55-.66.3.3,0,0,0-.39.14,1,1,0,0,0-.11,1.06C163.82,48.05,164.12,48.07,164.46,47.71Zm32.85-1.55a.33.33,0,0,0-.52-.29c-.12.11-.12.15.05.35a.75.75,0,0,1,.2.35c0,.1,0,.09.13,0a.75.75,0,0,0,.14-.37Zm-79.23,0c0-.18.09-1,.12-1.93l.07-1.6-.28-.13a.56.56,0,0,1-.33-.35c-.09-.38-.12-.43-.27-.43s-.37.41-.46.89c-.05.3,0,.36.23.57s.28.29.28.36.12.16.27.22c.32.12.37.42.09.6-.12.07-.16.16-.13.25a.88.88,0,0,1-.09.5c-.15.34-.15.38,0,.51s.18.33,0,.51-.09.42.22.38.25-.07.3-.35Zm-1.24.16c.21-.07.18-.28,0-.28s-.18.05-.18.16S116.64,46.36,116.84,46.29Zm79.43-1.09c0-.05,0-.09,0-.09a.1.1,0,0,0-.1.09s0,.08,0,.08S196.24,45.24,196.27,45.2ZM117,44.93a1.49,1.49,0,0,1,.27-.38c.08-.06.15-.13.15-.16A1.05,1.05,0,0,0,117,44c-.14,0-.28.42-.28.82S116.84,45.31,117,44.93Zm80.58-1.45c0-.91-.07-1.81-.11-2a3.32,3.32,0,0,1,.85-2.52c.33-.32.5-.33,1.06-.07.34.15.53.14.53,0,0-.4.49-.45.67-.06s.29.42.38.34a1.51,1.51,0,0,0-.1-.6c-.15-.55-.4-1.64-.63-2.79-.5-2.45-1.84-5.55-2.85-6.59-.35-.36-.36-.36-.54-.21s-.2.31.09.37a.33.33,0,0,1,.14.57c-.2.14-.41,0-.53-.24a.37.37,0,0,0-.32-.26.52.52,0,0,1-.32-.17c-.09-.12,0-.21.38-.54s.54-.58.2-.74c-.13-.06-.18,0-.26.12s-.5.28-.59.09a1.06,1.06,0,0,0-.37-.28L195,27.7l-.1.18a.8.8,0,0,1-.2.23c-.11.07.09.51.52,1.18a19.57,19.57,0,0,1,1.3,2.15,11.08,11.08,0,0,1,.79,3.08,7,7,0,0,0,.14,1.08l.08.3.36-.08c.34-.08.57-.32.37-.38s-.37-.26-.37-.39a.54.54,0,0,1,.18-.28l.19-.16-.27-.09c-.31-.1-.42-.32-.29-.54s.12-.15.57,0,.64.19.6.45a.25.25,0,0,1-.23.22c-.22,0-.27.13-.11.22a.24.24,0,0,0,.23,0c.1-.08.18-.08.35,0s.29.27.08.43-.17.09-.33,0-.19-.08-.26,0-.09.3.13.32.2.08.21.36c0,.46.17.69.47.69s.47.13.47.37a.73.73,0,0,0,.18.38c.32.36.19.71-.27.71a.9.9,0,0,0-.4.13.94.94,0,0,1-.42.12.65.65,0,0,0-.34.09c-.08.07-.16.07-.34,0s-.26-.26-.08-.68c0-.1,0-.15-.07-.15a.58.58,0,0,1-.29-.15c-.2-.21-.12-.44.23-.66.14-.1.26-.2.26-.23s-.18-.06-.4-.07-.41,0-.43.16,0,.31,0,.46-.07,1.22-.11,2.37-.1,2.14-.13,2.23-.16.68-.3,1.31a8.41,8.41,0,0,1-.37,1.36c-.14.26-.09.4.11.33s.14-.15.14-.35,0-.32.13-.35a.36.36,0,0,1,.45.16c.06.14-.1.43-.23.43s-.1.27.06.48a.39.39,0,0,0,.29.16c.14,0,.15-.2.13-1.7Zm-.09-9.94c-.16-.14-.14-.27.07-.57a1.16,1.16,0,0,0,.18-.53c0-.33.13-.4.41-.23a.36.36,0,0,1,.1.6.68.68,0,0,0-.18.35C198,33.59,197.75,33.75,197.51,33.54Zm.06-1.5a1.77,1.77,0,0,1-.53-.88c0-.06-.15-.19-.32-.28-.37-.2-.39-.28-.09-.55a1,1,0,0,1,1.09-.08c.16.1.16.14.06.4s-.1.33.07.63.18.37.09.57-.14.23-.17.23ZM186.2,42.71c.14-.19.16-.2.36-.08s.27.16.34-.06a1.12,1.12,0,0,1,.82-.5.28.28,0,0,0,.23-.21c0-.16.11-.2.29-.19s.24,0,.27-.45.06-.47.22-.54a.44.44,0,0,0,.25-.36.44.44,0,0,1,.25-.38.36.36,0,0,0,.24-.34.31.31,0,0,1,.19-.31.3.3,0,0,0,.21-.2.33.33,0,0,1,.26-.18.41.41,0,0,0,.3-.21.34.34,0,0,1,.28-.18.4.4,0,0,0,.31-.21.67.67,0,0,1,.33-.25.7.7,0,0,0,.31-.16.28.28,0,0,1,.28-.07.4.4,0,0,0,.33-.07,2.12,2.12,0,0,1,.51-.22,2.32,2.32,0,0,0,.5-.21,3.6,3.6,0,0,1,.9-.23c.65-.1.8-.15,1-.34a3.5,3.5,0,0,0,.77-2.6,1.92,1.92,0,0,0-.31-1.26,8.42,8.42,0,0,0-.67-1,5.7,5.7,0,0,1-.53-.8c-.14-.3-.27-.38-.38-.22s-.1.06-.18,0-.12-.19-.08-.41,0-.32-.14-.39a.35.35,0,0,1-.18-.28,1.23,1.23,0,0,0-.4-.56,1.5,1.5,0,0,1-.43-.6.28.28,0,0,0-.25-.28.29.29,0,0,1-.26-.22c0-.11-.2-.29-.43-.43s-.4-.31-.4-.41a.23.23,0,0,0-.16-.21,1.41,1.41,0,0,1-.36-.23c-.51-.43-.55-.45-.65-.33a.52.52,0,0,0-.05.39c0,.2,0,.32-.07.4a1.08,1.08,0,0,0-.23.43,2.22,2.22,0,0,1-.35.6c-.14.16-.29.36-.34.43a3.57,3.57,0,0,1-1,1.08c-1.36.91-1.39.94-1.47,1.4a5.26,5.26,0,0,0,0,1.13,3.74,3.74,0,0,1,0,1,2.62,2.62,0,0,0,.07,1.45,6.13,6.13,0,0,1,.17,1.07,3.43,3.43,0,0,0,.08.71c.08.17-.19.66-.34.61s-.09-.13-.08-.25,0-.21-.11-.21-.41-.52-.45-1.14c0-.29-.1-.79-.17-1.1l-.12-.57L184.4,33c-1.49-1.12-2.23-1.85-2.23-2.2,0-.13,0-.24.09-.24a3.51,3.51,0,0,1,.68.53,3.59,3.59,0,0,0,.67.53s.14-.1.19-.21.12-.21.32-.16l.52.1a1.61,1.61,0,0,1,.61.33c.42.36.71.32.71-.1,0-.15,0-.3-.1-.33s-.08-.17-.05-.33a.36.36,0,0,0-.13-.4.53.53,0,0,1-.17-.34c0-.15-.08-.23-.32-.32s-.35-.18-.32-.4c0-.05-.1-.14-.22-.19a.6.6,0,0,1-.28-.21c0-.09-.19-.13-.54-.13s-.49,0-.49-.06a.4.4,0,0,0-.07-.16c-.08-.11-.65,0-1.15.26a.93.93,0,0,1-1,0c-.28-.2-.34-.54-.08-.45a.8.8,0,0,0,1.07-.21,4.81,4.81,0,0,1,.71-.6c.49-.32.59-.44.59-.72s.29-.62.46-.62,0,.15,0,.34,0,.4.28.74a1.41,1.41,0,0,0,.43.38,8.29,8.29,0,0,1,1.47,1.35,1.86,1.86,0,0,0,.51.41.62.62,0,0,0,.63-.49.79.79,0,0,1,.26-.42.78.78,0,0,0,.27-.36.64.64,0,0,1,.13-.28.34.34,0,0,0,.09-.26c0-.06,0-.18.1-.29a.77.77,0,0,0,.14-.36.33.33,0,0,1,.08-.23s.07-.23.06-.46,0-.82,0-1.31c.09-1.1,0-1.38-.71-1.74a6.37,6.37,0,0,1-1.06-.81c-.67-.61-.63-.59-2.55-1.11-.3-.08-.66,0-.66.18s-.1.12-.23.17-.22.14-.22.19a.71.71,0,0,1-.22.29c-.13.1-.21.21-.18.25s-.14.4-.28.4-.13.08-.13.23-.18.42-.91.85-.94.9-1.08,2.4c-.1,1-.19,1.26-.48,1.23s-.21,0-.15-1a4.57,4.57,0,0,0-.05-.82.76.76,0,0,1,.13-.72,3.85,3.85,0,0,0,.37-.76c.29-.81.43-1.11.53-1.14a.24.24,0,0,0,.1-.21.45.45,0,0,1,.07-.26,2.3,2.3,0,0,0,.28-1.47,2.73,2.73,0,0,1-.39-1.21c.07-.24-.19-.39-1-.55-1.52-.33-1.63-.29-1.65.55a6.27,6.27,0,0,0,.06.94,1,1,0,0,1-.12.76c-.33.69-.42.51-.43-.91a3.6,3.6,0,0,0-.15-1.53,1.61,1.61,0,0,0-.85-.69,1.73,1.73,0,0,1-.51-.15l-.81-.32a3.33,3.33,0,0,0-.85-.22,8.7,8.7,0,0,1-.87-.13,1.44,1.44,0,0,0-.48-.05s0,1.91,0,3.44c0,.27,0,.71-.06,1-.07.45,0,.53.12.73a2.79,2.79,0,0,0,.71.48c.61.29.95.71.73.9s-.22.07-.81-.36c-.94-.68-1.25-1-1.31-1.24s-.24-.35-.45-.14a2.87,2.87,0,0,1-1.21.55c-.35,0-.1-.4.41-.63a1.09,1.09,0,0,0,.35-.4c.1-.17.22-.4.28-.51.15-.29.23-.72.14-.77a1.23,1.23,0,0,1-.08-.51c0-.33,0-.48-.14-.53a.35.35,0,0,1-.15-.3c0-.32-.12-.45-.36-.38s-.36-.06-.36-.42-.15-.44-.22-.23l-.1.26c-.08.22-.25,0-.3-.4s-.08-.35-.28-.35-.23,0-.26.31-.23.4-.41,0a1.74,1.74,0,0,0-.25-.4,5.6,5.6,0,0,0-1.88-.47,2.79,2.79,0,0,1-.68-.18,4.55,4.55,0,0,0-1.26-.18c-1.59-.09-1.8.15-.93,1,.26.26.65.65.86.88a1.63,1.63,0,0,0,.52.42c.21,0,.74.47.94.84a1.88,1.88,0,0,1,.19.72c0,.5.07.67.68,1.42s.51.65.46,1.05c0,.22-.07.5-.08.61a.3.3,0,0,1-.43.28c-.14,0-.16-.08-.1-.19a2,2,0,0,0-.28-1.45c-.52-.69-.61-.73-1.56-.8a15.69,15.69,0,0,0-1.68,0c-.71.05-.81,0-.81-.07s.17-.21.38-.31.47-.17,1.33-.12c1.06.06,1.31,0,1-.29a.81.81,0,0,1-.16-.58c0-.38,0-.42-.21-.45a.35.35,0,0,1-.26-.14c0-.06-.09-.12-.14-.12a1.36,1.36,0,0,1-.4-.24,1.51,1.51,0,0,0-.39-.24s-.17-.17-.27-.38-.22-.37-.37-.33a.31.31,0,0,1-.31-.09l-.31-.34c-.14-.17-.2-.19-.29-.11s-.39.13-.62-.1-.34-.25-.38,0-.18.31-.48.06a.48.48,0,0,0-.47-.16.67.67,0,0,1-.47-.09,1.19,1.19,0,0,0-.53-.13.89.89,0,0,1-.61-.2c-.31-.2-.33-.21-.44-.06s-.16.14-.48,0a1.42,1.42,0,0,0-.54-.06,1,1,0,0,1-.48,0,.55.55,0,0,0-.56.08,1.54,1.54,0,0,1-.94.17,5.47,5.47,0,0,0-1,.07,14.58,14.58,0,0,1-3.25.57,2.35,2.35,0,0,0-.81.06.56.56,0,0,1-.33.05.64.64,0,0,0-.35.06.35.35,0,0,1-.41,0c-.13-.07-.24-.11-.24-.08a1.3,1.3,0,0,0,0,.15c0,.14-.36.17-.59.06s-.19-.07-.18,0c.05.31,0,.39-.27.39a.52.52,0,0,0-.32.08.46.46,0,0,1-.29.08,1.29,1.29,0,0,0-.62.29c-.34.25-.43.28-.74.23s-.34,0-.34.23,0,.27-.26.3a.83.83,0,0,0-.43.18.48.48,0,0,1-.48.11.41.41,0,0,0-.49.17c-.18.2-.18.28-.14,1.25.06,1.15.14,1.46.46,1.8s.24.23.45.14.26-.07.5.19a1,1,0,0,1,.25.37.36.36,0,0,0,.15.2.26.26,0,0,1,.08.31.24.24,0,0,0,.13.31c.1.07.19.17.19.23a.18.18,0,0,0,.12.15c.07,0,.15.16.18.3a1.23,1.23,0,0,1-.56,1c-.1.09-.17.2-.15.25a1.41,1.41,0,0,1-.36.54,3.31,3.31,0,0,0-.84,1.33c0,.08.65-.71.77-1,0-.12.38-.15.38,0a4.88,4.88,0,0,1-.36.71,2.61,2.61,0,0,0-.33.7c.06.17.2,0,.29-.24s.15-.32.29-.34.25,0,.07.42-.18.87-.05.87a.11.11,0,0,0,.1-.1c0-.16.35-.64.43-.6s.05.22,0,.43a.74.74,0,0,0,0,.5c.15.16.25.11.25-.13a.75.75,0,0,1,.35-.65c.1,0,.11,0,.07.28s.09.71.25.69.08-.13.06-.26.21-.6.36-.52.08.17.08.32a.41.41,0,0,0,.2.4c.25.16.35.1.29-.19s.1-.39.33-.2.18.12.18,0,.2-.25.4,0l.21.24.29-.16a.65.65,0,0,1,.34-.1c.08.08.29-.12.29-.28s.08-.2.33,0,.22.15.25.06c.11-.34.15-.4.21-.4s.14.12.23.26.17.24.29.1.13-.15.35,0,.25.18.4.09a.25.25,0,0,1,.36,0c.18.15.38.19.38.07s.29-.15.55.05l.28.21-.06-.22c-.07-.23-.06-.24.54-.21a1.48,1.48,0,0,1,.56.14c.26.15.48.08.48-.14s0-.16.18-.09.51.1.62-.12a.37.37,0,0,1,.28-.2c.09,0,.19,0,.2-.09a.5.5,0,0,1,.28-.11.92.92,0,0,0,.42-.15.51.51,0,0,1,.26-.14,1.89,1.89,0,0,0,.4-.13l.53-.24a10.16,10.16,0,0,1,1.95-.32c.25,0,.42,0,.49.09s.36.15.36,0,.08-.07.24,0a2.94,2.94,0,0,0,.51.05,1.14,1.14,0,0,1,.43.08c.1,0,.18,0,.22,0s.13,0,.27,0a1,1,0,0,0,.39.13.31.31,0,0,1,.24.08c0,.05.19.06.36,0s.32,0,.36.05a.22.22,0,0,0,.23,0,.6.6,0,0,1,.35,0c.13.07.22.05.4-.08l.23-.16.1.17c.15.24.37.2.7-.14l.29-.31v.27c0,.45.38.28.71-.32a.52.52,0,0,1,.38-.3,1.06,1.06,0,0,0,.33-.11,1.11,1.11,0,0,1,.46-.09c.27,0,.36,0,.43.16s.12.19.16.19a1.29,1.29,0,0,0,.53-.49c.06-.17.35,0,.35.16s.07.21.37-.05.24-.2.3,0a.24.24,0,0,0,.2.17c.22,0,.24.23,0,.48s-.17.28-.14.33.58,0,.69-.24.36-.2.36,0,0,.21.23.21.23,0,.19.2,0,.31.49.2.52-.06.22.21a1,1,0,0,0-.23.25c0,.08.48,0,.78-.09s.61-.16.54,0,.1.23.34.08a.35.35,0,0,1,.38-.05.58.58,0,0,0,.37,0c.12,0,.22,0,.26,0a.45.45,0,0,0,.28.07.46.46,0,0,1,.34.14c.09.1.15.11.28.05a.31.31,0,0,1,.32,0c.21.12.59-.13.66-.44a3,3,0,0,0-.35-2.08.48.48,0,0,0-.35-.19c-.27,0-.47-.2-.58-.59a2.13,2.13,0,0,0-.28-.54c-.24-.3-.25-.58,0-.58a1.63,1.63,0,0,1,.91.61c.06.36.1.4.27.26s.26-.17.33.11.11.24.28.24.22.05.22.12.08.14.19.17.18.1.15.3,0,.25.17.31.21.08.07.38-.17.35-.19.41.11.14.2,0,.43-.1.38,0c-.16.39-.16.45,0,.49s.17.07-.19.71a2.24,2.24,0,0,0-.33.71s.2-.06.36-.2c.36-.32.42-.33.42-.06a.32.32,0,0,0,.15.27.37.37,0,0,1,.15.31c0,.13,0,.19,0,.13s.14-.1.27-.1.22,0,.19.37,0,.37.12.34.16,0,.22.57.06.61.18.36c.2-.42.3-.35.45.3l.06.27.14-.19.18-.23c.06-.07.2.21.2.43s.05.22.18.22.2.09.28.29.14.29.28.26.2,0,.26.15.14.2.21.2.18.08.28.56c.05.18.1.24.16.19a.2.2,0,0,1,.34.16,1,1,0,0,1-.14.4c-.15.26-.11.41.07.25s.36-.11.33.25,0,.34.14.32.17.06,0,.63c0,.17,0,.18.15.09s.22-.08.24-.06a2.78,2.78,0,0,1,0,1.22c-.11.21,0,.45.13.32s.44-.12.43,0a1,1,0,0,1-.18.37c-.23.35-.23.37.09.3s.28,0,.28.12a.6.6,0,0,0,.1.32c.08.13.07.21-.09.44-.29.42-.26.58.08.51s.33,0,.09.35a1,1,0,0,0-.18.43c0,.14,0,.16.27.11s.27,0,.26.1a.93.93,0,0,1-.27.43c-.34.37-.33.44,0,.38s.41,0,.18.2a.37.37,0,0,0,.14.62c.35.16.61.13.78-.1Zm.49-1.17c-.08-.13.21-.66.36-.66s.18,0,0,.41-.23.37-.32.25Zm-.09-1.1a1.8,1.8,0,0,1-.13-.61,4.41,4.41,0,0,1,.74-1.76,4.86,4.86,0,0,0,1.2-1.92,3.45,3.45,0,0,1,.71-1.64,8.52,8.52,0,0,0,.55-.75,4.74,4.74,0,0,1,1.74-1.71,3.05,3.05,0,0,1,.72-.17c.24,0,.64-.08.89-.12,1-.17,1.14-.17,1.11,0s-.08.17-.35.16-.32,0-.29.21,0,.24-.32.4a1.91,1.91,0,0,1-.72.18c-.4,0-.65.16-.65.4a.34.34,0,0,1-.14.25.38.38,0,0,0-.13.26.87.87,0,0,1-.3.42,3.12,3.12,0,0,0-.75,1c-.12.25-.27.37-.66.55a2.61,2.61,0,0,0-.64.37c-.12.12-.1.13.21.08s.33,0,.33.1a.63.63,0,0,1-.23.35.61.61,0,0,0-.22.32,1,1,0,0,1-.32.41.82.82,0,0,0-.31.47.68.68,0,0,1-.23.38.58.58,0,0,0-.23.35c0,.1-.17.31-.42.5s-.4.36-.32.43a.41.41,0,0,1,.11.24,2.86,2.86,0,0,1-.75,1s-.13-.13-.2-.28Zm4-6.6c.14-.07.26-.14.26-.17s-.33,0-.54.13S190.25,34,190.63,33.84Zm.78-.8c.22-.2.08-.26-.35-.13-.68.2-.83.55-.17.37A1.69,1.69,0,0,0,191.41,33Zm-4.85,4.87a1,1,0,0,1,.12-.36c.09-.14.13-.16.17-.07a.46.46,0,0,1-.12.36C186.59,38,186.56,38.05,186.56,37.91Zm-37.47-10.4a1.32,1.32,0,0,1-.43-.85c-.08-.44.05-.87.56-1.81.4-.75.41-.77.36-1.39a2.53,2.53,0,0,0-.91-1.86c-.61-.58-1-1.16-.95-1.45s.24-.33.4,0a3.83,3.83,0,0,0,1,1.3,2.12,2.12,0,0,1,.48.43c.27.33.44.39.76.28s.78,0,.78.16-.12.17-.36.23c-.48.13-.6.34-.66,1.11a1.76,1.76,0,0,1-.37,1.13,2.45,2.45,0,0,0-.37,2.5,1.1,1.1,0,0,1,.13.32C149.51,27.75,149.28,27.7,149.09,27.51Zm9.42-2.3a1.29,1.29,0,0,1,0-.48,1.13,1.13,0,0,0-.45-.9,7.75,7.75,0,0,1-.54-.56c-.33-.37-.36-.38-.81-.38a10.92,10.92,0,0,1-3-.16.17.17,0,0,1,.05-.25,7.33,7.33,0,0,1,2.45,0c1,.13,1.41-.21,1.78-1.49.29-1,.91-1.81,1.14-1.48.1.14.06.32-.22.81a8.26,8.26,0,0,0-.4.95,2.79,2.79,0,0,1-.36.77c-.48.56-.44.88.21,1.54a3,3,0,0,1,.77,1.45c0,.35-.11.5-.36.5s-.26,0-.31-.28Zm43,16.23a4.42,4.42,0,0,1-.15-.66c-.05-.32-.17-.36-.34-.11s-.05.17.12.28.19.17.11.36a.66.66,0,0,1-.27.3c-.3.15-.23.33.12.33a.66.66,0,0,1,.39.1c.12.17.13-.2,0-.6Zm-83.08.29a1.56,1.56,0,0,0,.05-.44c0-.32,0-.32-.26-.24a.38.38,0,0,0-.15.69C118.25,41.89,118.31,41.89,118.38,41.73Zm-.67-.88c.06-.32.3-.45.56-.31s.34,0,.34-.43a3.47,3.47,0,0,1,.19-.86,5.85,5.85,0,0,0,.23-1c0-.45,0-.45-.27-.59-.51-.22-.79-.1-1,.42a5,5,0,0,0-.21.91c-.06.48-.06.49.15.48.39,0,.44,0,.44.23s-.17.36-.49.29-.22,0-.31.32a3.2,3.2,0,0,0-.1.58c0,.18,0,.21.2.19a.27.27,0,0,0,.25-.26Zm.24-1.66a2.49,2.49,0,0,1,0-.62c0-.35.06-.49.18-.55.28-.14.45,0,.39.28a2.12,2.12,0,0,0-.06.49c0,.43-.37.75-.48.4Zm84,1c0-.16-.09-.27-.12-.25a.69.69,0,0,0,0,.34c0,.17.08.28.11.26A.68.68,0,0,0,202,40.18Zm-.91-.5c-.06-.13-.07-.13-.15,0a.19.19,0,0,0,0,.28c.11.12.12.12.15,0A.63.63,0,0,0,201.06,39.68Zm.41-1.79c-.08-.13-.09-.13-.09,0s.11.33.16.2A.35.35,0,0,0,201.47,37.89Zm-2.28-.61a.47.47,0,0,0-.58-.08.62.62,0,0,0-.2.24c-.09.14-.08.18.05.2a1.13,1.13,0,0,0,.49-.09C199.22,37.44,199.26,37.4,199.19,37.28Zm2.15-.21c-.06-.57-.21-1.4-.52-2.89a11.65,11.65,0,0,0-1.44-3.8,4,4,0,0,1-.35-.59c0-.08-1.22-1.86-1.78-2.6a9.83,9.83,0,0,0-1.79-2,1,1,0,0,1-.35-.32,2.19,2.19,0,0,0-.49-.46,4.15,4.15,0,0,1-.67-.55c-.19-.18-.34-.29-.34-.25s.15.3.85,1c.3.32.73.82.95,1.11.76,1,1.48,1.92,2,2.53a13.56,13.56,0,0,1,2.7,5.16,11.17,11.17,0,0,1,.37,1.12,2.69,2.69,0,0,0,.22.51,3.49,3.49,0,0,1,.28,1,3.29,3.29,0,0,0,.19.84.53.53,0,0,1,.07.35.31.31,0,0,0,0,.23c.11.32.16.15.1-.39Zm-82.18,0a.44.44,0,0,1-.09-.27c0-.25-.23-.41-.41-.28s0,.77.41.68c.13,0,.16-.07.09-.13Zm1-.88c.29-.5.32-.64.13-.64s-.14.08-.14.25-.06.28-.27.38-.35.33-.21.46S119.91,36.59,120.16,36.15Zm-.52-.51c.18-.15.33-.33.33-.4,0-.23.24-.33.54-.22s.42.07.59-.3.18-.36-.13-.3-.28,0-.35-.1a.44.44,0,0,1,.21-.58c.23-.12,0-.22-.22-.11a.83.83,0,0,0-.29.27,8.35,8.35,0,0,1-.53.67,8.8,8.8,0,0,0-.63.81c-.21.3-.21.32,0,.42l.18.11.35-.27Zm18-1.86c-.06-.06-.1-.06-.1,0a.18.18,0,0,0,.06.14.08.08,0,0,0,.1,0S137.75,33.83,137.69,33.78Zm.94-.1a1.74,1.74,0,0,0-.1-.32c-.09-.22.2-.15.39.09s.49.22.41,0,.11-.28.34-.06a.71.71,0,0,0,.38.2c.16,0,.17,0,.12-.33l-.06-.34.27,0a.38.38,0,0,0,.38-.08.41.41,0,0,1,.4-.07c.28,0,.57-.11.43-.23s.23-.15.41-.06.21.06.33-.1.23-.18.52-.18.38,0,.38-.24,0-.25.3-.24.3,0,.27-.23,0-.26.2-.31.23-.1.23-.21a.49.49,0,0,1,.12-.3,1,1,0,0,0,.17-.44c0-.26,0-.38-.25-.71a1.75,1.75,0,0,1,.13-2.65c.59-.64.78-1,.78-1.49a.85.85,0,0,0-.62-.86,3.76,3.76,0,0,0-1.58-.17c-1.19,0-1.27,0-1.65.2a3.82,3.82,0,0,0-.63.41c-.27.25-.44.23-.47,0s.43-.66,1-.84a7,7,0,0,1,1.09-.21c.58-.06.71-.11.91-.31s.24-.33.3-1.09a5.16,5.16,0,0,0-.12-2.09.4.4,0,0,0-.25.14.51.51,0,0,1-.31.17.45.45,0,0,0-.26.12.43.43,0,0,1-.28.13.37.37,0,0,0-.23.08.3.3,0,0,1-.27.06c-.25,0-.28.07-.08.31s.08.46-.51.19c-.37-.17-.37-.17-.56,0a.69.69,0,0,1-.82.12,3.35,3.35,0,0,0-.85-.14c-.5,0-.51,0-.5.22s0,.23-.16.27a.51.51,0,0,0-.26.2.35.35,0,0,1-.27.16.33.33,0,0,0-.33.32.23.23,0,0,1-.14.16,1.71,1.71,0,0,0-.4.31,1.42,1.42,0,0,1-1.23.39c-.26,0-.35,0-.4.08s-.16.12-.4.12-.37,0-.44.17a.41.41,0,0,1-.33.16.69.69,0,0,0-.67.37.3.3,0,0,1-.29.2c-.5,0-1.5.85-1.9,1.61a2.73,2.73,0,0,1-.35.55c-.17.1-.07.28.15.28s.22,0,.22-.09.11,0,.23.09.23.24.23.3.07.14.17.19a.5.5,0,0,1,.22.3c0,.13.11.5.19.84s.12.66,0,.83-.06.49.12.45.12.07.14.17.07.18.12.18.08.15.08.33,0,.34.13.37a.2.2,0,0,1,.14.16c0,.06.08.12.18.12a.29.29,0,0,1,.24.11.35.35,0,0,0,.22.16c.12,0,.17.11.17.28s.15.41.3.27.24-.11.34.12.1.21.26.08.18-.14.29,0a.4.4,0,0,0,.24.17.83.83,0,0,1,.27.07,2.45,2.45,0,0,0,.31.12.22.22,0,0,1,.16.19.54.54,0,0,0,.09.27c.07.1.1.1.21,0s.13-.14.3.11.31.33.31.15a.56.56,0,0,1,.12-.27c.12-.14.14-.14.29.15s.31.39.31.11.2-.41.34-.27a.42.42,0,0,1,.11.28c0,.22.32.54.46.46s.07-.13,0-.23Zm-1.37-2.3c-.33-.29-.33-.3-.28-.85a3.53,3.53,0,0,1,.32-1.1,7.3,7.3,0,0,0,.33-.75,3.3,3.3,0,0,1,.8-1.15.36.36,0,0,1,.33.34A3.77,3.77,0,0,1,138,29.2a1.19,1.19,0,0,0-.28.53c0,.15-.09.44-.14.62a.88.88,0,0,0,.29.94C138.28,31.75,137.76,31.83,137.26,31.38Zm-15.32,1.9c0-.09,0-.12-.11-.08s-.2.3,0,.25A.22.22,0,0,0,121.94,33.28Zm.46-.43a.78.78,0,0,0,.19-.29.91.91,0,0,1,.23-.33l.23-.24-.19-.18a.58.58,0,0,1-.18-.28c0-.05-.06-.09-.13-.09s-.18.08,0,.36,0,.74-.45.5-.32-.13-.58.19l-.18.23h.34c.28,0,.34,0,.36.17s.14.23.37,0Zm2.22-2.26a7.19,7.19,0,0,0,.95-.93c0-.05.11-.14.25-.21a6.05,6.05,0,0,0,1.92-1.74c0-.21-.25-.59-.39-.59a.79.79,0,0,1-.3-.17l-.21-.18-.18.2c-.23.25-.23.27,0,.38a.31.31,0,0,1,.23.28.37.37,0,0,1-.71.18c-.1-.2-.13-.21-.31-.1a1.37,1.37,0,0,0-.34.34c-.12.2-.12.23,0,.34a.4.4,0,0,0,.32.07c.39-.15.45-.14.45.08s0,.21-.17.21a.33.33,0,0,1-.24-.09c-.1-.15-.25.06-.3.44s-.08.35-.3.37-.42-.17-.23-.46a.55.55,0,0,0,.1-.32c-.08-.19-.28-.1-.58.23s-.29.35-.13.45a1.76,1.76,0,0,0,.26.14c.13,0,0,.29-.18.35a.45.45,0,0,1-.33-.05c-.24-.13-.48,0-.81.42a.69.69,0,0,0-.2.71,4,4,0,0,0,.1.44c.11.16.38,0,1.25-.79Zm-.76-.12a.29.29,0,0,1,.07-.21c.11-.06.32.17.24.28A.17.17,0,0,1,123.86,30.47Zm55.28.45c0-.08,0-.12-.08-.09s-.09.18-.08.35,0,.28.08.09A1.9,1.9,0,0,0,179.14,30.92Zm15.1-3.35c.24-.23.38-.25.54-.08s.14.09.37-.06.28-.16.51-.06l.32.14s.06,0,.06-.13a1.59,1.59,0,0,0-.72-.75.1.1,0,0,0-.09.11.45.45,0,0,1-.17.25c-.14.12-.21.13-.36.05-.36-.17-.19-.65.23-.65.12,0,.21,0,.21-.05s-.95-1.26-1-1.16l-.22.28-.2.26.23.19c.3.25.26.51-.09.55s-.45-.08-.43-.43,0-.29-.35-.37-.37-.14-.41-.31c-.09-.38-.18-.47-.52-.49s-.33,0-.24.19a1.89,1.89,0,0,0,.34.49,4.71,4.71,0,0,1,.48.66A9,9,0,0,0,194,27.77.86.86,0,0,0,194.24,27.57ZM128.74,27c.17-.13.67-.55,1.11-.94a9.58,9.58,0,0,1,.85-.71,6.39,6.39,0,0,0,1.22-1c.18-.28.13-.35-.2-.29s-.26,0-.3-.12,0-.26.31-.26.29-.05.4-.28.15-.28.31-.21a.32.32,0,0,1,.18.25c0,.19.23.21.31,0s0-1-.24-1a5.69,5.69,0,0,0-1.31.83,1.78,1.78,0,0,1-.48.31c-.12,0-.12.3,0,.37s.11.41-.05.53-.17.09-.27,0a.62.62,0,0,1-.13-.26c0-.16-.16-.14-.46.06-.57.37-.53.75.09.71.27,0,.32,0,.32.13s-.08.18-.31.23c-.66.15-.76.13-1-.25,0-.07-.48.21-.8.51a7.07,7.07,0,0,1-.64.51c-.22.14-.25.19-.16.32s.18.15.44.12l.33,0-.06.37C128.17,27.28,128.28,27.32,128.74,27Zm0-1.13c0-.13.11-.27.31-.27s.12.09.12.2-.05.2-.19.2A.28.28,0,0,1,128.76,25.85Zm-1.8.08c.05-.11,0-.12-.08,0s-.17.16,0,.16S126.93,26,127,25.93Zm.63-.52a1.15,1.15,0,0,1,.28-.24,9.92,9.92,0,0,0,2-1.46,2.05,2.05,0,0,1,.53-.41,3.35,3.35,0,0,0,.79-.71c0-.07-.28.11-.89.59a3.5,3.5,0,0,1-.48.33,17.17,17.17,0,0,0-2.6,2.12c0,.1.2,0,.39-.22Zm66-.62c.07-.06-.18-.52-.29-.52s-.19.42-.13.51S193.55,24.86,193.63,24.79Zm-2-.52c-.13-.56-.2-.67-.32-.47A.61.61,0,0,1,191,24c-.2.05-.22.07-.11.19a5.71,5.71,0,0,0,.84.59A2.28,2.28,0,0,0,191.66,24.27Zm1.13-.38a.56.56,0,0,0-.42-.43c-.15,0-.17.5,0,.63A.3.3,0,0,0,192.79,23.89Zm-2-.43c.05-.35,0-.38-.22-.51s-.27-.13-.37,0,0,.59.31.77a.52.52,0,0,0,.2.09,2.23,2.23,0,0,0,.08-.38Zm1.12-.18.21-.13-.24-.25c-.29-.31-.46-.32-.6,0s-.07.25.06.48.19.26.27.18a1.36,1.36,0,0,1,.3-.23ZM133.8,22.8c.07-.13.07-.2,0-.27s-.38.15-.31.33S133.68,23,133.8,22.8Zm55.6-.28c0-.22,0-.24-.26-.21-.42,0-.55-.31-.25-.63s.34-.22.4,0a.23.23,0,0,0,.2.16c.22,0,.14-.35-.09-.4a6.85,6.85,0,0,1-.88-.48,4.18,4.18,0,0,0-1-.47c-.22,0-.26,0-.32.16a.62.62,0,0,1-.32.34c-.31.14-.34.24-.12.46s.39.18.39-.05.36-.55.73-.37.22.31-.06.58-.22.25-.15.36a5.41,5.41,0,0,0,1.6.82C189.36,22.77,189.4,22.65,189.4,22.52Zm1.16-.14c.16-.25.16-.26,0-.36s-.3-.13-.4.09,0,.54.12.53S190.47,22.53,190.56,22.38Zm-58.36-.3a1,1,0,0,0,.38-.26,8.62,8.62,0,0,1,1-.7c.83-.48,1.26-.82,1.26-1s-.05-.08-.24,0a8.53,8.53,0,0,0-1.47,1,6.57,6.57,0,0,1-.62.42c-.21.12-.45.28-.53.34l-.38.27c-.13.09-.19.19-.15.25s.15,0,.34-.11A1.06,1.06,0,0,1,132.2,22.08Zm1.62.08a.53.53,0,0,1,.33-.17c.12,0,.18.06.18.17s.09.2.66-.17a3.12,3.12,0,0,1,.58-.32,1.15,1.15,0,0,0,.38-.27c.26-.25.28-.3.18-.49s-.08-.24.06-.38.28-.21.45.08.28.31.75,0,.38-.26.33-.61-.05-.36.13-.36a.61.61,0,0,1,.35.17c.28.3.52.14.37-.24-.07-.15,0-.24.11-.39s.18-.19,0-.24a2.06,2.06,0,0,0-.85.28c-.64.3-.7.35-.71.58,0,.38-.15.47-.53.34s-.33-.09-.86.28-.54.37-.4.57a.42.42,0,0,1,.09.33c-.08.19-.44.11-.5-.11s-.16-.24-.39-.06-.21.3-.09.27a.82.82,0,0,1,.27,0c.37.12.2.54-.22.54-.21,0-.25-.09-.21-.47,0-.22,0-.22-.65.21-.46.3-.49.34-.32.49S133.64,22.34,133.82,22.16Zm52.6-1.73a.26.26,0,0,0,.21-.2c0-.13,0-.2-.32-.29s-.57-.08-.57.12a.7.7,0,0,1-.2.29l-.2.19.21.16c.22.16.22.16.46,0A1.15,1.15,0,0,1,186.42,20.43Zm-2-.44a.74.74,0,0,1,.05-.46c.09-.19.08-.25,0-.31a.33.33,0,0,0-.46.05l-.28.29c-.23.23-.19.39.14.52S184.51,20.24,184.44,20ZM183,19.51a.12.12,0,0,0-.13-.12c-.14,0-.18.09-.08.19S183,19.64,183,19.51Zm2.17,0c0-.1-.17-.2-.24-.14s0,.21.16.21A.08.08,0,0,0,185.2,19.56Zm-45.39-.21c.14-.09.15-.13.06-.21s-.57,0-.57.21S139.58,19.51,139.81,19.35Zm42.63-.19c0-.12-.07-.26-.09-.32s0-.15.1-.22,0-.23-.19-.09a.92.92,0,0,1-.46.12.41.41,0,0,0-.33.12c-.07.17.52.62.8.62S182.49,19.36,182.44,19.16ZM141,19c.17-.14.17-.15,0-.4s-.27-.25-.44-.23-.23.06-.23.39a1.69,1.69,0,0,0,0,.42C140.33,19.26,140.78,19.14,141,19Zm1.85-.44a4.17,4.17,0,0,1,.85-.25c.47-.07.64-.18.57-.38s0-.48.22-.48.28.16.28.42.18.26.63.12a1.43,1.43,0,0,1,.47-.08,2,2,0,0,0,.86-.23c.07-.06.08-.13,0-.26a.32.32,0,0,1,.05-.39c.16-.21.12-.31-.13-.31s-.17.1-.21.33-.11.35-.33.42-.27.11-.27.15-.28.16-.47.07-.17-.14-.13-.37.06-.31-1,0c-.51.16-.57.2-.63.45-.09.41-.24.5-.44.27a1.38,1.38,0,0,1-.2-.28c0-.08-.13-.07-.44,0s-.4.16-.44.41-.09.28-.27.28-.36.09-.36.23.87.05,1.33-.14Zm38-.31c.1-.35.09-.39,0-.39a.92.92,0,0,0-.54.55c0,.12.22.27.35.25s.18-.2.24-.41Zm-1.09-.05c.07-.1-.13-.24-.4-.27s-.33-.17-.52-.64l-.09-.2-.15.26c-.27.48-.78.26-.78-.35,0-.14-.06-.21-.24-.25a.34.34,0,0,0-.41.16c-.19.23-.55.29-.67.12a1.91,1.91,0,0,1-.17-.39c-.07-.22-.15-.29-.33-.31s-.24,0-.27.37a.8.8,0,0,0,0,.48,1.62,1.62,0,0,0,.55.2,3.7,3.7,0,0,1,.69.2,2.78,2.78,0,0,0,.65.14,3.1,3.1,0,0,1,.7.18,1.62,1.62,0,0,0,.58.12.65.65,0,0,1,.42.13c.12.13.32.16.4.05Zm-31.19-.79c1-.27,1.06-.36.41-.36s-.79-.13-.79-.37a.2.2,0,0,0-.12-.15.28.28,0,0,0-.33.24.69.69,0,0,1-.18.28c-.29.29-.23.43.24.56C147.78,17.6,148.13,17.5,148.54,17.39Zm-5-.48c.1-.06.15-.14.11-.17s-.79.12-.79.22S143.32,17,143.51,16.91Zm7.68,0a2.2,2.2,0,0,1,.69-.09,2.89,2.89,0,0,0,.75-.09,10.23,10.23,0,0,1,1.5-.19,11,11,0,0,0,1.3-.15.47.47,0,0,0,0-.32c-.11-.35-.43-.4-.73-.11s-.57.26-.69-.22c-.06-.21-.1-.23-.4-.2s-.34,0-.34.28-.09.41-.29.3a.28.28,0,0,1-.13-.3c0-.11,0-.22,0-.24a1.92,1.92,0,0,0-.61.05l-.54.1v.4c0,.31,0,.41-.15.43s-.44-.2-.44-.44,0-.2-.33-.18-.38.09-.72.52a3.37,3.37,0,0,0-.39.56,4.2,4.2,0,0,0,1.6-.11Zm23.91-.29a.86.86,0,0,0,0-.47,1.76,1.76,0,0,0-.48-.11l-.41-.05-.1.33a2,2,0,0,0-.11.42c0,.13.53.33.81.31S175,16.94,175.1,16.58Zm-30.6,0c0-.05,0-.08-.17-.08a.44.44,0,0,0-.28.08c0,.05,0,.08.17.08S144.47,16.67,144.5,16.62Zm4.91-.31c0-.12-.34-.13-.53,0s-.11.09,0,.15A.47.47,0,0,0,149.41,16.31Zm23.81.18c.2-.07.2-.73,0-.79s-.39,0-.45.33,0,.32.1.4S173,16.55,173.22,16.49Zm-15.48-.33,1.08,0c.74,0,.9-.06.9-.27a.77.77,0,0,1,.28-.39.9.9,0,0,0,.27-.32c0-.14-.37-.23-.74-.19s-.35.08-.39.27a.89.89,0,0,1-.23.37c-.17.14-.19.13-.4,0a.91.91,0,0,1-.28-.34.26.26,0,0,0-.22-.15c-.14,0-.16,0-.12.31a.41.41,0,0,1-.14.46c-.18.14-.2.14-.42,0s-.3-.41-.13-.5.1-.29,0-.29-.14.09-.14.28-.06.33-.33.52c-.42.31-.34.47.19.38a6.68,6.68,0,0,1,.87-.09Zm5.38,0c.22-.05.4-.14.4-.2s-.31-.29-.52-.27-.4,0-.53-.29-.19-.29-.26-.29-.12,0,0,.21.14.22-.05.46-.21.36.47.46a2.45,2.45,0,0,0,.48-.08Zm8.87,0c0-.06-.1-.11-.31-.13s-.37-.06-.48-.28-.19-.27-.38-.27-.25,0-.25,0a2,2,0,0,0,.38.71A1.69,1.69,0,0,0,172,16.08ZM164.7,16c.24-.12.07-.41-.23-.41s-.46.27-.36.41S164.48,16.07,164.7,16Zm-3.14-.24a.56.56,0,0,1,.1-.45c.13-.18.13-.22,0-.26-.27-.09-.47,0-.45.22,0,.44.15.73.26.73s.11-.07.07-.24Zm4.26.16s0-.11-.12-.16c-.25-.12-.28-.11-.28.08S165.72,16,165.82,15.89Zm3,0c0-.19-.17-.22-.27,0s-.07.17.09.17.18-.05.18-.12Zm-1.53-.68c-.25,0-.32,0-.24.2s.07.12.25,0l.19-.15-.2,0Zm-1.79-.11a.33.33,0,0,0-.3,0l-.21.05.21.16c.2.15.23.15.3,0a.16.16,0,0,0,0-.21Z" transform="translate(0 0)"/></g><text class="cls-7" transform="translate(15.88 80.23)"><tspan xml:space="preserve">Medic S  stem</tspan></text><path class="cls-8" d="M220.84,65.78V59.19a.86.86,0,0,0-.75-.94h-3v-.94a.89.89,0,0,0-.65-.93l-3-.54a2.36,2.36,0,0,0-2.16.79,4,4,0,0,0,0,5.12,2.41,2.41,0,0,0,1.78.83,2.34,2.34,0,0,0,.38,0l3-.55a.89.89,0,0,0,.65-.93v-.94h2.26v5.65c0,7.78-5.08,14.12-11.33,14.12h-1.51c-6.25,0-11.33-6.34-11.33-14.12V60.13h2.27v.94a.88.88,0,0,0,.65.93l3,.55a2.56,2.56,0,0,0,.39,0,2.43,2.43,0,0,0,1.78-.83,4,4,0,0,0,0-5.12,2.38,2.38,0,0,0-2.17-.79l-3,.54a.88.88,0,0,0-.65.93v.94h-3a.86.86,0,0,0-.76.94v6.59c0,8.82,5.76,16,12.84,16v.94a2.59,2.59,0,0,0,2.27,2.82h7.55a1.93,1.93,0,0,1,0,3.77H198.94c-1.67,0-3,1.69-3,3.76s1.35,3.77,3,3.77h6.8a.86.86,0,0,1,.75.94v.07c-2.56.46-4.53,3.2-4.53,6.52,0,3.63,2.37,6.58,5.29,6.58s5.28-3,5.28-6.58c0-3.32-2-6.06-4.53-6.52v-.07A2.59,2.59,0,0,0,205.74,95h-6.8a1.93,1.93,0,0,1,0-3.76h17.37c1.67,0,3-1.69,3-3.76s-1.35-3.77-3-3.77h-7.55a.86.86,0,0,1-.76-.94v-.94C215.08,81.78,220.84,74.6,220.84,65.78Zm-5.28-5.52-2.4.42a1,1,0,0,1-1-.35,1.76,1.76,0,0,1,0-2.28,1.05,1.05,0,0,1,.78-.37l.18,0,2.4.42Zm-16.62-2.14,2.39-.42a1,1,0,0,1,1,.35,1.79,1.79,0,0,1,0,2.28,1,1,0,0,1-1,.35l-2.39-.42ZM211,104.37c0,2.59-1.69,4.7-3.77,4.7s-3.78-2.11-3.78-4.7,1.69-4.71,3.78-4.71S211,101.77,211,104.37Z" transform="translate(0 0)"/></svg>