<svg id="Capa_1" enable-background="new 0 0 512 512" height="512" viewBox="0 0 512 512" width="512" xmlns="http://www.w3.org/2000/svg"><g><g><circle cx="253.533" cy="189.733" fill="#a0c8ff" r="182.233"/><path d="m253.533 7.5c-3.864 0-7.696.135-11.5.372 95.285 5.936 170.733 85.081 170.733 181.862s-75.448 175.926-170.733 181.861c3.804.237 7.636.371 11.5.371 100.645 0 182.233-81.589 182.233-182.233s-81.588-182.233-182.233-182.233z" fill="#91b2fa"/><g><path d="m493.652 371.967c6.158 0 10.163 6.48 7.409 11.988l-25.351 50.701c-1.126 2.252-1.126 4.903 0 7.155l25.351 50.701c2.754 5.508-1.251 11.988-7.409 11.988h-119.131c-9.15 0-16.567-7.417-16.567-16.567v-38.133h-203.908v38.133c0 9.15-7.417 16.567-16.567 16.567h-119.131c-6.158 0-10.163-6.48-7.409-11.988l25.351-50.701c1.126-2.252 1.126-4.903 0-7.155l-25.351-50.701c-2.754-5.508 1.251-11.988 7.409-11.988z" fill="#a3b9cc"/><path d="m427.679 454.8h-348.467c-4.418 0-8-3.582-8-8v-116.533c0-4.418 3.582-8 8-8h348.467c4.418 0 8 3.582 8 8v116.533c0 4.418-3.582 8-8 8z" fill="#bdd3dd"/><path d="m427.679 322.267h-23c4.418 0 8 3.582 8 8v116.533c0 4.418-3.582 8-8 8h23c4.418 0 8-3.582 8-8v-116.533c0-4.419-3.582-8-8-8z" fill="#abc4d6"/></g></g><g><path d="m482.306 438.233 25.462-50.925c2.464-4.928 2.206-10.669-.69-15.357-2.897-4.687-7.916-7.485-13.426-7.485h-50.473v-34.2c0-8.547-6.953-15.5-15.5-15.5h-31.521c12.76-14.527 23.16-30.814 31.002-48.618 10.629-24.129 16.019-49.839 16.019-76.415 0-21.377-3.53-42.362-10.493-62.373-1.361-3.913-5.639-5.979-9.548-4.619-3.912 1.361-5.98 5.636-4.619 9.548 5.594 16.078 8.78 32.845 9.501 49.944h-76.038c-.61-30.863-4.976-60.439-12.665-86.642 17.713-4.599 34.02-10.625 48.206-17.911 7.266 8.688 13.758 18.143 19.319 28.306 1.989 3.633 6.545 4.968 10.18 2.979 3.634-1.988 4.968-6.546 2.979-10.18-7.047-12.878-15.468-24.712-25.003-35.389-.037-.044-.075-.086-.113-.129-35.573-39.762-86.77-63.267-141.439-63.267-55.686 0-105.844 24.117-140.584 62.451-.592.485-1.115 1.069-1.548 1.743-29.604 33.477-47.603 77.442-47.603 125.539 0 26.575 5.389 52.284 16.018 76.413 7.843 17.805 18.243 34.093 31.003 48.62h-31.52c-8.547 0-15.5 6.953-15.5 15.5v34.2h-45.364c-5.51 0-10.529 2.798-13.426 7.485-2.897 4.688-3.155 10.428-.691 15.357l25.462 50.925-25.461 50.925c-2.464 4.928-2.206 10.669.691 15.356 2.896 4.688 7.915 7.486 13.425 7.486h119.13c13.271 0 24.067-10.796 24.067-24.067v-25.633h27.201c4.142 0 7.5-3.358 7.5-7.5s-3.358-7.5-7.5-7.5h-109.534c-.276 0-.5-.224-.5-.5v-116.533c0-.276.224-.5.5-.5h49.135c.007 0 .014.001.021.001s.013-.001.02-.001h62.381c.057.001.114 0 .171 0h124.962c.025 0 .049.004.074.004.022 0 .043-.004.065-.004h62.409c.023 0 .046.003.069.003.025 0 .05-.003.074-.003h49.085c.276 0 .5.224.5.5v116.533c0 .276-.224.5-.5.5h-208.932c-4.142 0-7.5 3.358-7.5 7.5s3.358 7.5 7.5 7.5h131.708v25.633c0 13.271 10.796 24.067 24.066 24.067h119.131c5.51 0 10.529-2.798 13.426-7.485 2.896-4.688 3.155-10.428.69-15.356zm-403.094 24.067h67.334v25.633c0 4.999-4.067 9.067-9.067 9.067h-119.131c-.12 0-.437 0-.667-.372-.229-.371-.087-.655-.034-.762l27.139-54.279c1.056-2.111 1.056-4.597 0-6.708l-27.139-54.279c-.053-.107-.195-.391.034-.762.23-.372.547-.372.667-.372h45.364v67.334c0 8.547 6.953 15.5 15.5 15.5zm248.783-147.533c2.406-5.322 4.64-10.871 6.702-16.618 15.433 3.954 29.706 9.044 42.295 15.144-.496.495-1.002.984-1.505 1.474zm-67.049 0v-26.33c20.424.43 40.354 2.606 58.969 6.347-2.577 7.055-5.425 13.737-8.522 19.983zm-65.447 0c-3.097-6.246-5.945-12.928-8.522-19.983 18.615-3.741 38.545-5.917 58.969-6.347v26.33zm-64.096 0c-.503-.491-1.008-.979-1.505-1.474 12.589-6.1 26.862-11.19 42.295-15.144 2.063 5.747 4.297 11.296 6.702 16.618zm-52.519-132.534c1.684-39.668 16.652-75.952 40.565-104.512 14.167 7.267 30.446 13.279 48.126 17.87-7.689 26.203-12.055 55.779-12.665 86.642zm167.062-91.201c-20.437-.43-40.38-2.609-59.006-6.354 2.644-7.189 5.574-14.027 8.785-20.449 14.004-28.007 31.609-44.904 50.221-48.498zm65.221-26.803c3.211 6.421 6.141 13.26 8.785 20.449-18.626 3.745-38.569 5.924-59.006 6.354v-75.301c18.612 3.593 36.217 20.491 50.221 48.498zm-128.859-6.708c-3.725 7.45-7.094 15.415-10.099 23.803-15.409-3.947-29.661-9.026-42.236-15.112 21.23-21.222 47.884-37.01 77.672-45.109-9.33 9.282-17.877 21.499-25.337 36.418zm-.116 41.477c20.131 4.174 41.699 6.587 63.754 7.035v76.2h-76.034c.609-29.785 4.842-58.218 12.28-83.235zm63.754 98.235v76.201c-22.031.448-43.575 2.856-63.686 7.021-7.412-25.069-11.717-53.713-12.344-83.223h76.03zm15 0h76.03c-.627 29.51-4.932 58.153-12.344 83.223-20.111-4.166-41.656-6.574-63.686-7.021zm126.592 104.563c-14.182-7.286-30.486-13.312-48.196-17.912 7.683-26.153 12.034-55.68 12.639-86.65h76.029c-1.612 38.82-15.726 75.118-40.472 104.562zm-50.558-119.563h-76.034v-76.2c22.055-.449 43.623-2.861 63.754-7.035 7.437 25.017 11.67 53.45 12.28 83.235zm-12.397-124.712c-7.455-14.91-15.998-27.122-25.321-36.402 29.394 7.987 56.193 23.545 77.724 45.061-12.592 6.101-26.868 11.191-42.304 15.145-3.005-8.389-6.374-16.354-10.099-23.804zm-245.703 139.712h76.029c.606 30.97 4.957 60.498 12.64 86.65-17.71 4.6-34.014 10.626-48.196 17.912-24.746-29.443-38.86-65.741-40.473-104.562zm415.438 299.395c-.23.372-.547.372-.667.372h-119.13c-4.999 0-9.066-4.067-9.066-9.067v-25.633h62.225c8.547 0 15.5-6.953 15.5-15.5v-67.333h50.473c.12 0 .436 0 .667.372.229.371.087.655.034.762l-27.139 54.279c-1.056 2.111-1.056 4.597 0 6.708l27.139 54.279c.052.106.194.39-.036.761z"/><path d="m146.546 355.4v34.496l-18.925-37.85c-1.555-3.111-5.047-4.744-8.431-3.945-3.385.799-5.777 3.821-5.777 7.299v66.267c0 4.142 3.358 7.5 7.5 7.5s7.5-3.358 7.5-7.5v-34.497l18.925 37.85c1.291 2.582 3.916 4.147 6.706 4.146.571 0 1.15-.065 1.725-.201 3.385-.799 5.777-3.821 5.777-7.299v-66.266c0-4.142-3.358-7.5-7.5-7.5s-7.5 3.358-7.5 7.5z"/><path d="m220.312 362.9c4.142 0 7.5-3.358 7.5-7.5s-3.358-7.5-7.5-7.5h-33.133c-4.142 0-7.5 3.358-7.5 7.5v66.267c0 4.142 3.358 7.5 7.5 7.5h33.133c4.142 0 7.5-3.358 7.5-7.5s-3.358-7.5-7.5-7.5h-25.633v-18.133h25.633c4.142 0 7.5-3.358 7.5-7.5s-3.358-7.5-7.5-7.5h-25.633v-18.134z"/><path d="m269.887 429.165c.043 0 .084.001.126.001 3.342 0 6.289-2.216 7.21-5.439l9.355-32.744 9.355 32.744c.921 3.224 3.867 5.439 7.21 5.439.042 0 .085-.001.126-.001 3.395-.057 6.328-2.386 7.151-5.68l16.566-66.267c1.005-4.018-1.438-8.09-5.457-9.095-4.012-1.004-8.09 1.439-9.095 5.457l-9.773 39.094-8.873-31.053c-.92-3.22-3.863-5.439-7.211-5.439s-6.292 2.22-7.211 5.439l-8.872 31.053-9.774-39.094c-1.005-4.02-5.078-6.464-9.095-5.457-4.018 1.004-6.462 5.077-5.457 9.095l16.567 66.267c.825 3.294 3.758 5.624 7.152 5.68z"/><path d="m369.412 414.167c-5 0-9.067-4.067-9.067-9.066 0-4.142-3.358-7.5-7.5-7.5s-7.5 3.358-7.5 7.5c0 13.27 10.796 24.066 24.067 24.066 13.27 0 24.066-10.796 24.066-24.066 0-13.271-10.796-24.067-24.066-24.067-5 0-9.067-4.067-9.067-9.066 0-5 4.067-9.067 9.067-9.067 4.999 0 9.066 4.067 9.066 9.067 0 4.142 3.358 7.5 7.5 7.5s7.5-3.358 7.5-7.5c0-13.271-10.796-24.067-24.066-24.067-13.271 0-24.067 10.796-24.067 24.067 0 13.27 10.796 24.066 24.067 24.066 4.999 0 9.066 4.067 9.066 9.067.001 4.998-4.067 9.066-9.066 9.066z"/></g></g></svg>