<svg id="Capa_1" data-name="Capa 1" xmlns="http://www.w3.org/2000/svg" viewBox="0 0 64 64"><defs><style>.cls-1{fill:#3fa9f5;}.cls-2{font-size:48.34px;font-family:GillSansMT, Gill Sans MT;}.cls-3{fill:#ed1c24;}.cls-4{fill:#ff1d25;}</style></defs><title>Sin título-1</title><rect class="cls-1" x="0.05" y="0.05" width="63.9" height="63.9" rx="9.26"/><path d="M54.69.1A9.22,9.22,0,0,1,63.9,9.31V54.69a9.22,9.22,0,0,1-9.21,9.21H9.31A9.22,9.22,0,0,1,.1,54.69V9.31A9.22,9.22,0,0,1,9.31.1H54.69m0-.1H9.31A9.31,9.31,0,0,0,0,9.31V54.69A9.31,9.31,0,0,0,9.31,64H54.69A9.31,9.31,0,0,0,64,54.69V9.31A9.31,9.31,0,0,0,54.69,0Z"/><rect class="cls-1" width="64" height="64" rx="9.31"/><text class="cls-2" transform="translate(3 45.63) scale(0.97 1)">MS</text><rect class="cls-3" x="1.05" y="48.05" width="61.9" height="3.9" rx="1.45"/><path class="cls-4" d="M61.5,48.1a1.4,1.4,0,0,1,1.4,1.4v1a1.4,1.4,0,0,1-1.4,1.4H2.5a1.4,1.4,0,0,1-1.4-1.4v-1a1.4,1.4,0,0,1,1.4-1.4h59m0-.1H2.5A1.5,1.5,0,0,0,1,49.5v1A1.5,1.5,0,0,0,2.5,52h59A1.5,1.5,0,0,0,63,50.5v-1A1.5,1.5,0,0,0,61.5,48Z"/></svg>